<svg viewBox="0 0 539 415" fill="none" xmlns="http://www.w3.org/2000/svg">
<g opacity="0.71">
<g clip-path="url(#clip0)">
<path opacity="0.1" d="M504.853 234.761C485 264.624 490.024 306.133 500.02 339.011C503.386 350.017 507.189 361.647 504.93 373.812C502.165 388.688 490.895 400.146 479.341 406.56C458.286 418.258 433.846 417.297 415.715 404.065C400.045 392.626 389.395 373.11 373.403 362.234C346.675 344.098 310.984 353.801 280.164 369.389C258.359 380.404 234.42 394.453 213.755 385.64C199.215 379.438 189.791 362.734 185.108 344.699C182.848 335.991 181.367 326.505 176.549 319.788C173.664 315.797 169.818 313.057 165.832 310.83C129.43 290.281 81.4015 305.469 46.182 282.362C22.4154 266.783 8.27476 235.463 2.99545 202.215C-2.28387 168.967 0.317326 133.603 3.84649 98.802C6.35152 74.0738 9.94318 47.6195 23.7377 27.7957C38.3303 6.82744 62.0007 -2.10124 82.8776 0.41341C103.754 2.92806 122.112 15.3811 138.089 30.4161C158.057 49.1677 176.251 72.9487 201.604 79.4589C218.87 83.9064 237.478 79.733 255.624 77.5357C285.963 73.9055 316.028 75.9249 345.891 78.3242C374.485 80.6225 403.262 83.3198 430.115 93.1188C449.117 100.052 463.935 113.861 481.75 123.045C493.361 129.031 506.295 130.079 517.176 137.95C530.581 147.638 542.428 165.207 537.769 186.916C533.341 207.586 515.387 218.894 504.853 234.761Z" fill="#0981EF"/>
<path opacity="0.1" d="M443.16 123.29H423.499V153.052H443.16V123.29Z" fill="#0981EF"/>
<path opacity="0.1" d="M441.246 126.184H425.408V150.158H441.246V126.184Z" fill="#0981EF"/>
<path opacity="0.1" d="M413.787 102.615H383.592V132.377H413.787V102.615Z" fill="#0981EF"/>
<path opacity="0.1" d="M410.849 105.509H386.525V129.483H410.849V105.509Z" fill="#0981EF"/>
<path opacity="0.1" d="M123.362 58.332H31.0701V60.789H123.362V58.332Z" fill="#0981EF"/>
<path opacity="0.1" d="M123.362 70.3475H31.0701V72.8045H123.362V70.3475Z" fill="#0981EF"/>
<path d="M196.191 217.63H186.762V322.995H196.191V217.63Z" fill="#D6D6E3"/>
<path d="M471.6 228.693V131.502C471.601 128.793 472.678 126.196 474.594 124.281C476.51 122.365 479.108 121.29 481.817 121.29C484.523 121.295 487.116 122.373 489.027 124.287C490.939 126.202 492.014 128.796 492.015 131.502V249.128C492.015 251.838 490.938 254.437 489.022 256.353C487.106 258.269 484.507 259.345 481.798 259.345H418.518C415.808 259.345 413.209 258.269 411.293 256.353C409.377 254.437 408.301 251.838 408.301 249.128C408.301 246.418 409.377 243.819 411.293 241.903C413.209 239.987 415.808 238.911 418.518 238.911H461.382C464.092 238.911 466.691 237.834 468.607 235.918C470.523 234.002 471.6 231.403 471.6 228.693Z" fill="#AEBEE1"/>
<path d="M471.6 228.693V131.502C471.601 128.793 472.678 126.196 474.594 124.281C476.51 122.365 479.108 121.29 481.817 121.29C484.523 121.295 487.116 122.373 489.027 124.287C490.939 126.202 492.014 128.796 492.015 131.502V249.128C492.015 251.838 490.938 254.437 489.022 256.353C487.106 258.269 484.507 259.345 481.798 259.345H418.518C415.808 259.345 413.209 258.269 411.293 256.353C409.377 254.437 408.301 251.838 408.301 249.128C408.301 246.418 409.377 243.819 411.293 241.903C413.209 239.987 415.808 238.911 418.518 238.911H461.382C464.092 238.911 466.691 237.834 468.607 235.918C470.523 234.002 471.6 231.403 471.6 228.693Z" fill="#535461"/>
<path d="M408.315 248.58C408.455 245.969 409.592 243.511 411.49 241.712C413.388 239.913 415.903 238.911 418.518 238.911H461.382C464.092 238.911 466.691 237.834 468.607 235.918C470.523 234.002 471.6 231.403 471.6 228.693V131.502C471.598 128.876 472.607 126.35 474.418 124.449C476.23 122.547 478.703 121.416 481.326 121.29V248.58H408.315Z" fill="#D6D6E3"/>
<path d="M92.5563 231.973V134.781C92.5563 132.076 91.4832 129.48 89.5723 127.565C87.6613 125.65 85.0687 124.57 82.3631 124.564C79.6533 124.564 77.0545 125.64 75.1384 127.557C73.2223 129.473 72.1458 132.071 72.1458 134.781V252.407C72.1427 253.751 72.4046 255.082 72.9167 256.324C73.4287 257.567 74.1808 258.696 75.1299 259.647C76.079 260.599 77.2064 261.353 78.4476 261.868C79.6887 262.383 81.0193 262.648 82.3631 262.648H145.638C148.348 262.648 150.947 261.572 152.863 259.656C154.779 257.74 155.855 255.141 155.855 252.431C155.855 249.721 154.779 247.123 152.863 245.206C150.947 243.29 148.348 242.214 145.638 242.214H102.778C101.434 242.214 100.103 241.95 98.8614 241.435C97.6196 240.921 96.4916 240.166 95.5421 239.215C94.5925 238.263 93.8399 237.134 93.3276 235.891C92.8153 234.648 92.5531 233.317 92.5563 231.973Z" fill="#AEBEE1"/>
<path d="M92.5563 231.973V134.781C92.5563 132.076 91.4832 129.48 89.5723 127.565C87.6613 125.65 85.0687 124.57 82.3631 124.564C79.6533 124.564 77.0545 125.64 75.1384 127.557C73.2223 129.473 72.1458 132.071 72.1458 134.781V252.407C72.1427 253.751 72.4046 255.082 72.9167 256.324C73.4287 257.567 74.1808 258.696 75.1299 259.647C76.079 260.599 77.2064 261.353 78.4476 261.868C79.6887 262.383 81.0193 262.648 82.3631 262.648H145.638C148.348 262.648 150.947 261.572 152.863 259.656C154.779 257.74 155.855 255.141 155.855 252.431C155.855 249.721 154.779 247.123 152.863 245.206C150.947 243.29 148.348 242.214 145.638 242.214H102.778C101.434 242.214 100.103 241.95 98.8614 241.435C97.6196 240.921 96.4916 240.166 95.5421 239.215C94.5925 238.263 93.8399 237.134 93.3276 235.891C92.8153 234.648 92.5531 233.317 92.5563 231.973Z" fill="#535461"/>
<path d="M155.841 251.859C155.701 249.248 154.564 246.79 152.666 244.991C150.768 243.192 148.253 242.19 145.638 242.19H102.778C101.436 242.19 100.107 241.927 98.8669 241.413C97.6268 240.9 96.4999 240.148 95.5506 239.199C94.6013 238.25 93.8483 237.124 93.3345 235.884C92.8208 234.644 92.5563 233.315 92.5563 231.973V134.781C92.5558 132.159 91.5473 129.638 89.7394 127.739C87.9316 125.839 85.4628 124.708 82.8439 124.578V251.859H155.841Z" fill="#D6D6E3"/>
<path d="M382.731 217.63H373.302V325.452H382.731V217.63Z" fill="#D6D6E3"/>
<path opacity="0.1" d="M196.191 217.63H186.762V225.419H196.191V217.63Z" fill="black"/>
<path opacity="0.1" d="M382.731 217.63H373.302V225.419H382.731V217.63Z" fill="black"/>
<path opacity="0.1" d="M220.438 153.466C220.287 155.126 220.096 156.809 219.866 158.514H218.534V153.466H220.438Z" fill="black"/>
<path d="M259.071 205.913C259.1 207.62 257.869 209.019 256.345 209.019H227.568V206.018H251.513C252.546 206.018 253.191 204.768 252.671 203.768L230.958 159.606C230.804 159.287 230.566 159.018 230.269 158.826C229.972 158.634 229.628 158.528 229.275 158.519H218.534V153.47H232.098C232.345 153.477 232.585 153.551 232.793 153.685C233.001 153.819 233.168 154.008 233.276 154.23L258.167 202.311C258.741 203.427 259.05 204.659 259.071 205.913Z" fill="#535461"/>
<path d="M206.22 197.902L205.826 198.566L202.138 196.104L213.548 108.37H216.486C216.486 108.37 216.606 108.774 216.803 109.543C218.769 117.126 228.429 160.067 206.22 197.902Z" fill="#535461"/>
<path opacity="0.1" d="M216.798 109.543L206.22 197.902L205.826 198.566L202.138 196.104L213.548 108.37H216.486C216.486 108.37 216.601 108.789 216.798 109.543Z" fill="black"/>
<path d="M209.625 107.462L198.801 197.829L205.724 198.659L216.547 108.292L209.625 107.462Z" fill="#D6D6E3"/>
<path d="M175.078 205.946C175.077 206.164 174.99 206.372 174.836 206.526C174.682 206.68 174.474 206.767 174.256 206.768H173.025C172.807 206.768 172.598 206.682 172.444 206.528C172.289 206.373 172.203 206.164 172.203 205.946C172.199 205.914 172.199 205.882 172.203 205.85C172.227 205.652 172.323 205.469 172.473 205.336C172.623 205.203 172.815 205.13 173.015 205.129H174.246C174.429 205.131 174.606 205.193 174.749 205.306C174.893 205.419 174.995 205.577 175.04 205.754C175.061 205.816 175.074 205.881 175.078 205.946Z" fill="#E3EDF9"/>
<path d="M178.766 205.946C178.765 206.164 178.678 206.372 178.524 206.526C178.37 206.68 178.161 206.767 177.944 206.768H176.713C176.495 206.768 176.286 206.682 176.131 206.528C175.977 206.373 175.891 206.164 175.891 205.946C175.891 205.87 175.902 205.794 175.924 205.72C175.961 205.587 176.032 205.466 176.131 205.369C176.206 205.293 176.296 205.232 176.395 205.191C176.494 205.149 176.601 205.128 176.708 205.129H177.939C178.098 205.128 178.253 205.173 178.387 205.258C178.521 205.344 178.627 205.465 178.694 205.61C178.741 205.716 178.765 205.83 178.766 205.946Z" fill="#E3EDF9"/>
<path d="M182.045 205.946C182.044 206.164 181.957 206.372 181.803 206.526C181.649 206.68 181.441 206.767 181.223 206.768H179.992C179.774 206.768 179.565 206.682 179.411 206.528C179.256 206.373 179.17 206.164 179.17 205.946C179.168 205.828 179.192 205.712 179.242 205.605C179.309 205.463 179.414 205.343 179.546 205.258C179.677 205.173 179.83 205.126 179.987 205.124H181.218C181.326 205.123 181.433 205.144 181.533 205.185C181.633 205.226 181.724 205.287 181.801 205.363C181.877 205.44 181.938 205.531 181.979 205.631C182.02 205.731 182.041 205.838 182.04 205.946H182.045Z" fill="#E3EDF9"/>
<path d="M185.738 205.946C185.736 206.164 185.649 206.372 185.495 206.526C185.342 206.68 185.133 206.767 184.916 206.768H183.685C183.534 206.768 183.387 206.727 183.258 206.649C183.13 206.571 183.025 206.459 182.956 206.326C182.887 206.192 182.855 206.043 182.865 205.893C182.875 205.743 182.925 205.598 183.012 205.475L183.108 205.369C183.183 205.293 183.273 205.232 183.372 205.191C183.471 205.149 183.577 205.128 183.685 205.129H184.916C185.028 205.13 185.138 205.154 185.241 205.2C185.343 205.245 185.435 205.311 185.512 205.393C185.656 205.541 185.737 205.739 185.738 205.946Z" fill="#E3EDF9"/>
<path opacity="0.1" d="M175.054 205.749C175.071 205.813 175.079 205.88 175.078 205.946C175.077 206.164 174.99 206.372 174.836 206.526C174.682 206.68 174.474 206.767 174.256 206.768H173.025C172.807 206.768 172.598 206.682 172.444 206.528C172.289 206.373 172.203 206.164 172.203 205.946C172.199 205.914 172.199 205.882 172.203 205.85L175.054 205.749Z" fill="black"/>
<path opacity="0.1" d="M178.699 205.619C178.742 205.721 178.765 205.831 178.766 205.941C178.765 206.159 178.678 206.367 178.524 206.521C178.37 206.675 178.161 206.762 177.944 206.764H176.713C176.495 206.764 176.286 206.677 176.131 206.523C175.977 206.369 175.891 206.159 175.891 205.941C175.891 205.865 175.902 205.789 175.924 205.715L178.699 205.619Z" fill="black"/>
<path opacity="0.1" d="M181.925 205.509C182.006 205.639 182.049 205.788 182.05 205.941C182.049 206.159 181.962 206.367 181.808 206.521C181.654 206.675 181.445 206.762 181.228 206.764H179.997C179.779 206.764 179.57 206.677 179.415 206.523C179.261 206.369 179.175 206.159 179.175 205.941C179.173 205.824 179.197 205.707 179.247 205.6L181.925 205.509Z" fill="black"/>
<path opacity="0.1" d="M185.738 205.946C185.736 206.164 185.649 206.372 185.495 206.526C185.342 206.68 185.133 206.767 184.916 206.768H183.685C183.534 206.768 183.387 206.727 183.258 206.649C183.13 206.571 183.025 206.459 182.956 206.326C182.887 206.192 182.855 206.043 182.865 205.893C182.875 205.743 182.925 205.598 183.012 205.475L185.512 205.388C185.657 205.537 185.739 205.738 185.738 205.946Z" fill="black"/>
<path d="M193.113 209.225H169.337V208.144C169.337 207.663 169.523 207.202 169.857 206.856C170.191 206.511 170.646 206.309 171.126 206.292L190.195 205.634C190.574 205.621 190.951 205.684 191.305 205.82C191.659 205.956 191.982 206.162 192.255 206.425C192.527 206.689 192.744 207.004 192.893 207.353C193.041 207.702 193.118 208.077 193.118 208.456L193.113 209.225Z" fill="#D6D6E3"/>
<path d="M310.417 205.913C310.388 207.62 311.619 209.019 313.143 209.019H341.934V206.018H317.961C316.927 206.018 316.283 204.768 316.802 203.768L338.516 159.606C338.669 159.287 338.908 159.018 339.204 158.826C339.501 158.634 339.845 158.528 340.199 158.519H350.945V153.47H337.391C337.147 153.48 336.911 153.555 336.707 153.688C336.503 153.821 336.339 154.006 336.232 154.225L311.34 202.307C310.759 203.422 310.443 204.656 310.417 205.913Z" fill="#535461"/>
<path d="M363.273 197.902L363.667 198.566L367.355 196.104L355.945 108.37H353.007C353.007 108.37 352.887 108.774 352.69 109.543C350.719 117.126 341.04 160.067 363.273 197.902Z" fill="#535461"/>
<path opacity="0.1" d="M352.69 109.543L363.268 197.902L363.662 198.566L367.35 196.104L355.945 108.37H353.007C353.007 108.37 352.887 108.789 352.69 109.543Z" fill="black"/>
<path d="M359.872 107.453L352.95 108.283L363.773 198.65L370.696 197.821L359.872 107.453Z" fill="#D6D6E3"/>
<path d="M394.41 205.946C394.411 206.164 394.498 206.372 394.652 206.526C394.806 206.68 395.015 206.767 395.232 206.768H396.463C396.681 206.768 396.89 206.682 397.045 206.528C397.199 206.373 397.285 206.164 397.285 205.946C397.289 205.914 397.289 205.882 397.285 205.85C397.261 205.652 397.165 205.469 397.015 205.336C396.866 205.203 396.673 205.13 396.473 205.129H395.242C395.059 205.131 394.882 205.193 394.739 205.306C394.595 205.419 394.493 205.577 394.449 205.754C394.427 205.816 394.415 205.881 394.41 205.946Z" fill="#E3EDF9"/>
<path d="M390.722 205.946C390.724 206.164 390.811 206.372 390.964 206.526C391.118 206.68 391.327 206.767 391.544 206.768H392.775C392.883 206.768 392.99 206.747 393.09 206.706C393.19 206.664 393.28 206.604 393.357 206.528C393.433 206.451 393.494 206.361 393.535 206.261C393.576 206.161 393.597 206.054 393.597 205.946C393.597 205.87 393.586 205.794 393.564 205.72C393.527 205.587 393.456 205.466 393.357 205.369C393.282 205.293 393.192 205.232 393.093 205.191C392.994 205.149 392.887 205.128 392.78 205.129H391.525C391.366 205.128 391.211 205.173 391.077 205.258C390.943 205.344 390.837 205.465 390.77 205.61C390.732 205.717 390.715 205.832 390.722 205.946Z" fill="#E3EDF9"/>
<path d="M387.443 205.946C387.444 206.164 387.531 206.372 387.685 206.526C387.839 206.68 388.048 206.767 388.265 206.768H389.496C389.714 206.768 389.923 206.682 390.078 206.528C390.232 206.373 390.318 206.164 390.318 205.946C390.32 205.828 390.296 205.712 390.246 205.605C390.18 205.463 390.074 205.343 389.943 205.258C389.811 205.173 389.658 205.126 389.501 205.124H388.27C388.162 205.123 388.055 205.144 387.955 205.185C387.855 205.226 387.764 205.287 387.687 205.363C387.611 205.44 387.55 205.531 387.509 205.631C387.468 205.731 387.447 205.838 387.448 205.946H387.443Z" fill="#E3EDF9"/>
<path d="M383.75 205.946C383.752 206.164 383.839 206.372 383.993 206.526C384.147 206.68 384.355 206.767 384.573 206.768H385.804C385.954 206.768 386.101 206.727 386.23 206.649C386.358 206.571 386.463 206.459 386.532 206.326C386.602 206.192 386.633 206.043 386.623 205.893C386.614 205.743 386.563 205.598 386.477 205.475L386.381 205.369C386.305 205.293 386.215 205.232 386.116 205.191C386.017 205.149 385.911 205.128 385.804 205.129H384.573C384.461 205.13 384.35 205.154 384.247 205.2C384.145 205.245 384.053 205.311 383.976 205.393C383.832 205.541 383.751 205.739 383.75 205.946Z" fill="#E3EDF9"/>
<path opacity="0.1" d="M394.434 205.749C394.418 205.813 394.409 205.88 394.41 205.946C394.411 206.164 394.498 206.372 394.652 206.526C394.806 206.68 395.015 206.767 395.232 206.768H396.463C396.681 206.768 396.89 206.682 397.045 206.528C397.199 206.373 397.285 206.164 397.285 205.946C397.289 205.914 397.289 205.882 397.285 205.85L394.434 205.749Z" fill="black"/>
<path opacity="0.1" d="M390.79 205.619C390.746 205.721 390.723 205.831 390.722 205.941C390.724 206.159 390.811 206.367 390.964 206.521C391.118 206.675 391.327 206.762 391.544 206.764H392.775C392.883 206.764 392.99 206.742 393.09 206.701C393.19 206.66 393.28 206.599 393.357 206.523C393.433 206.446 393.494 206.356 393.535 206.256C393.576 206.156 393.598 206.049 393.598 205.941C393.597 205.865 393.586 205.789 393.564 205.715L390.79 205.619Z" fill="black"/>
<path opacity="0.1" d="M387.563 205.509C387.482 205.639 387.439 205.788 387.438 205.941C387.44 206.159 387.527 206.367 387.68 206.521C387.834 206.675 388.043 206.762 388.26 206.764H389.491C389.709 206.764 389.919 206.677 390.073 206.523C390.227 206.369 390.314 206.159 390.314 205.941C390.316 205.824 390.291 205.707 390.241 205.6L387.563 205.509Z" fill="black"/>
<path opacity="0.1" d="M383.75 205.946C383.752 206.164 383.839 206.372 383.993 206.526C384.147 206.68 384.355 206.767 384.573 206.768H385.804C385.954 206.768 386.101 206.727 386.23 206.649C386.358 206.571 386.463 206.459 386.532 206.326C386.602 206.192 386.633 206.043 386.623 205.893C386.614 205.743 386.563 205.598 386.477 205.475L383.976 205.388C383.831 205.537 383.75 205.738 383.75 205.946Z" fill="black"/>
<path d="M376.375 209.225H400.151V208.144C400.151 207.663 399.965 207.202 399.631 206.856C399.297 206.511 398.842 206.309 398.362 206.292L379.293 205.634C378.914 205.621 378.537 205.684 378.183 205.82C377.829 205.956 377.506 206.162 377.234 206.425C376.961 206.689 376.744 207.004 376.595 207.353C376.447 207.702 376.37 208.077 376.37 208.456L376.375 209.225Z" fill="#D6D6E3"/>
<path d="M475.893 222.26C486.986 203.446 482.966 165.495 483.413 164.769C483.812 164.13 482.283 146.258 472.09 141.892C470.249 138.243 468.436 134.132 468.436 134.132C468.258 134.3 468.061 134.446 467.849 134.57C467.769 134.352 467.691 134.131 467.614 133.906C467.484 133.526 467.364 133.137 467.243 132.747C467.529 132.839 467.819 132.912 468.114 132.969C468.891 133.158 469.709 133.086 470.441 132.762C470.69 132.628 470.916 132.454 471.109 132.247C471.912 131.714 472.354 130.752 472.73 129.843L475.696 122.737C477.033 119.53 478.379 116.304 479.091 112.904C480.15 107.789 479.74 102.478 477.908 97.5856C477.206 95.7201 476.235 93.8545 474.585 92.739C471.282 90.4984 466.686 92.0467 462.911 90.734C461.671 90.3013 460.551 89.5705 459.31 89.1281C456.632 88.1665 453.608 88.681 451.03 89.8782C448.453 91.0754 446.367 92.9794 444.112 94.6863C443.001 95.5374 441.227 96.4172 439.919 97.5712C438.65 98.5617 437.674 99.7589 437.861 101.336C438.073 103.139 439.972 104.221 441.741 104.644C442.034 104.711 442.337 104.764 442.635 104.817C440.535 106.945 439.022 109.58 438.243 112.466C437.464 115.352 437.446 118.39 438.19 121.286C438.934 124.181 440.415 126.834 442.489 128.987C444.564 131.14 447.16 132.718 450.026 133.57C450.928 135.264 451.709 137.02 452.362 138.825C452.449 139.072 452.534 139.32 452.617 139.57C449.703 140.397 447.424 141.085 446.968 141.465C445.588 142.609 448.477 152.629 448.477 152.629C447.742 153.562 446.992 154.624 446.232 155.764C440.471 164.514 436.823 174.484 435.577 184.887C435.096 188.69 434.471 192.58 433.678 196.277L399.218 189.368L399.146 190.219L398.324 190.017L395.737 189.377L395.636 189.959L395.242 189.772C388.833 186.767 378.034 182.93 370.72 186.887C363.003 191.041 379.659 196.561 390.347 199.499C386.804 199.672 383.414 200.523 380.731 202.513C372.98 208.321 394.901 211.346 405.252 212.418L405.671 212.461V212.682L409.258 213.014L410.099 213.091L410.181 214.37C410.181 214.37 415.316 215.211 422.177 216.231C414.345 218.188 404.666 219.544 397.944 220.337C390.818 221.174 384.751 226.136 382.837 233.054C382.218 235.038 382.158 237.154 382.664 239.17C384.664 246.157 382.222 297.551 381.669 308.619L368.999 315.913C368.999 315.913 349.286 318.317 362.417 322.937C363.6 323.341 364.81 323.663 366.037 323.899C364.306 325.015 364.456 326.471 369.557 328.26C382.698 332.866 413.243 328.058 413.243 328.058C413.243 328.058 412.575 322.644 411.489 318.144L411.825 318.173C411.825 318.173 408.671 306.436 413.455 300.517C418.239 294.598 412.652 249.551 412.652 249.551C412.652 249.551 421.028 246.084 446.064 245.858C466.258 251.042 476.1 232.487 475.961 222.895C475.917 222.678 475.908 222.457 475.893 222.26Z" fill="url(#paint0_linear)"/>
<path d="M401.262 193.104L399.122 201.758C399.122 201.758 397.199 201.326 394.314 200.585C384.544 198.056 363.936 191.983 372.197 187.526C379.317 183.68 389.804 187.421 396.03 190.339C398.309 191.411 400.021 192.373 400.786 192.825C401.108 193.008 401.262 193.104 401.262 193.104Z" fill="#F8B9BF"/>
<path opacity="0.1" d="M400.661 195.546L399.122 201.797C399.122 201.797 397.199 201.364 394.314 200.624L396.05 190.378C398.329 191.45 400.04 192.411 400.805 192.863L400.661 195.546Z" fill="black"/>
<path d="M400.665 202.388L394.694 200.912L396.55 189.969L401.324 191.147L400.665 202.388Z" fill="#D9DFE8"/>
<path opacity="0.1" d="M400.665 202.388L398.088 201.754L399.06 190.589L401.324 191.147L400.665 202.388Z" fill="black"/>
<path d="M458.286 157.062C458.286 157.062 446.819 150.436 441.722 169.443C436.625 188.449 436.145 197.205 436.145 197.205L399.93 189.964L398.781 203.191C398.781 203.191 437.5 215.692 442.371 214.784C447.242 213.875 463.046 187.377 463.046 187.377C463.046 187.377 477.413 166.842 458.286 157.062Z" fill="#0981EF"/>
<g opacity="0.1">
<path opacity="0.1" d="M401.262 193.104L399.122 201.758C399.122 201.758 397.199 201.326 394.314 200.585C384.544 198.056 363.936 191.983 372.197 187.526C379.317 183.68 389.804 187.421 396.03 190.339C398.309 191.411 400.021 192.373 400.786 192.825C401.108 193.008 401.262 193.104 401.262 193.104Z" fill="black"/>
<path opacity="0.1" d="M400.661 195.546L399.122 201.797C399.122 201.797 397.199 201.364 394.314 200.624L396.05 190.378C398.329 191.45 400.04 192.411 400.805 192.863L400.661 195.546Z" fill="black"/>
<path opacity="0.1" d="M400.665 202.388L394.694 200.912L396.55 189.969L401.324 191.147L400.665 202.388Z" fill="black"/>
<path opacity="0.1" d="M400.665 202.388L398.088 201.754L399.06 190.589L401.324 191.147L400.665 202.388Z" fill="black"/>
<path opacity="0.1" d="M458.286 157.543C458.286 157.543 446.819 150.917 441.722 169.924C436.625 188.93 436.145 197.686 436.145 197.686L399.93 190.445L398.781 203.672C398.781 203.672 437.5 216.173 442.371 215.264C447.242 214.356 463.046 187.858 463.046 187.858C463.046 187.858 477.413 167.323 458.286 157.543Z" fill="black"/>
</g>
<path d="M385.347 304.335L370.562 312.85C370.562 312.85 351.406 315.196 364.167 319.668C376.928 324.139 406.594 319.471 406.594 319.471C406.594 319.471 404.945 306.143 402.646 304.282C400.348 302.421 385.347 304.335 385.347 304.335Z" fill="#68739D"/>
<path d="M442.972 208.797C442.972 208.797 435.616 212.644 422.547 215.966C414.888 217.89 405.3 219.255 398.675 220.034C395.283 220.403 392.078 221.772 389.465 223.966C386.852 226.16 384.95 229.08 384.001 232.357C383.395 234.291 383.337 236.355 383.832 238.319C386.01 245.931 382.76 307.801 382.76 307.801L405.214 309.879C405.214 309.879 402.151 298.479 406.801 292.733C411.45 286.987 406.022 243.252 406.022 243.252C406.022 243.252 414.157 239.887 438.467 239.666C460.988 245.435 470.268 220.784 466.791 213.875C463.315 206.966 442.972 208.797 442.972 208.797Z" fill="#6394E2"/>
<g opacity="0.1">
<path opacity="0.1" d="M385.347 304.335L370.562 312.85C370.562 312.85 351.406 315.196 364.167 319.668C376.928 324.139 406.594 319.471 406.594 319.471C406.594 319.471 404.945 306.143 402.646 304.282C400.348 302.421 385.347 304.335 385.347 304.335Z" fill="black"/>
<path opacity="0.1" d="M442.972 208.797C442.972 208.797 435.616 212.644 422.547 215.966C414.888 217.89 405.3 219.255 398.675 220.034C395.283 220.403 392.078 221.772 389.465 223.966C386.852 226.16 384.95 229.08 384.001 232.357C383.395 234.291 383.337 236.355 383.832 238.319C386.01 245.931 382.76 307.801 382.76 307.801L405.214 309.879C405.214 309.879 402.151 298.479 406.801 292.733C411.45 286.987 406.022 243.252 406.022 243.252C406.022 243.252 414.157 239.887 438.467 239.666C460.988 245.435 470.268 220.784 466.791 213.875C463.315 206.966 442.972 208.797 442.972 208.797Z" fill="black"/>
</g>
<path d="M392.28 309.503L377.495 318.019C377.495 318.019 358.349 320.346 371.1 324.837C383.851 329.327 413.527 324.639 413.527 324.639C413.527 324.639 411.878 311.311 409.58 309.451C407.281 307.59 392.28 309.503 392.28 309.503Z" fill="#68739D"/>
<path d="M445.376 244.834C421.066 245.055 412.931 248.421 412.931 248.421C412.931 248.421 418.359 292.175 413.71 297.902C409.06 303.628 412.123 315.047 412.123 315.047L389.669 312.97C389.669 312.97 389.708 312.239 389.77 310.932C390.309 300.181 392.679 250.272 390.732 243.488C390.24 241.529 390.299 239.473 390.9 237.545C391.845 234.264 393.745 231.338 396.357 229.139C398.969 226.939 402.176 225.566 405.57 225.193C412.191 224.419 421.778 223.073 429.437 221.125L429.812 221.029C442.65 217.731 449.862 213.957 449.862 213.957C449.862 213.957 470.205 212.129 473.682 219.039C474.172 220.134 474.415 221.325 474.393 222.525C474.566 231.848 464.998 249.868 445.376 244.834Z" fill="#6394E2"/>
<path d="M411.513 203.888L410.69 212.783C410.69 212.783 408.714 212.644 405.776 212.336C395.742 211.293 374.456 208.36 381.981 202.72C388.453 197.873 399.377 199.989 405.969 201.951C408.373 202.672 410.219 203.369 411.041 203.701C411.344 203.816 411.513 203.888 411.513 203.888Z" fill="#F8B9BF"/>
<path d="M471.234 145.734C471.234 145.734 468.224 148.09 464.546 150.677C460.512 151.59 455.829 152.345 452.454 152.836C453.661 148.989 452.935 144.662 451.574 140.868C450.094 136.904 448.062 133.168 445.54 129.771L465.888 123.42C464.291 127.463 465.012 132.074 466.368 136.084C467.565 139.498 469.201 142.742 471.234 145.734Z" fill="#F8B9BF"/>
<path opacity="0.1" d="M411.282 206.393L410.69 212.783C410.69 212.783 408.714 212.644 405.777 212.336L405.969 201.946C408.373 202.667 410.219 203.364 411.041 203.696L411.282 206.393Z" fill="black"/>
<path d="M412.306 213.158L406.18 212.591L406.382 201.494L411.282 201.946L412.306 213.158Z" fill="#D9DFE8"/>
<path opacity="0.1" d="M471.234 145.734C471.234 145.734 468.224 148.09 464.546 150.677C460.512 151.59 455.829 152.345 452.454 152.836C453.661 148.989 452.935 144.662 451.574 140.868C456.545 139.426 463.657 137.56 466.373 136.06C467.567 139.482 469.201 142.734 471.234 145.734Z" fill="black"/>
<path d="M467.167 136.301C467.167 136.301 470.571 144.027 472.715 147.518C474.86 151.009 447.799 154.249 447.799 154.249C447.799 154.249 444.991 144.523 446.333 143.407C447.674 142.292 464.902 138.56 467.167 136.301Z" fill="#D9DFE8"/>
<path opacity="0.1" d="M474.432 222.529C473.293 224.537 471.875 226.373 470.22 227.982C458.267 239.339 438.674 227.501 429.831 221.029C442.669 217.731 449.881 213.957 449.881 213.957C449.881 213.957 470.225 212.129 473.701 219.039C474.198 220.134 474.448 221.326 474.432 222.529Z" fill="black"/>
<path d="M470.297 227.169C456.709 240.074 433.274 222.986 426.956 217.952C425.932 217.135 425.36 216.63 425.36 216.63C427.855 214.293 430.048 209.341 431.784 203.283C433.401 197.486 434.57 191.574 435.279 185.598C436.489 175.495 440.031 165.811 445.626 157.312C446.362 156.206 447.069 155.172 447.804 154.269C452.935 147.744 461.556 143.599 461.556 143.599C479.749 138.282 482.197 165.27 481.711 166.048C481.226 166.827 486.091 212.163 470.297 227.169Z" fill="#0981EF"/>
<path opacity="0.1" d="M472.056 190.277C472.056 190.277 460.358 218.837 455.68 220.467C453.002 221.395 438.698 219.635 426.956 217.957C425.932 217.14 425.36 216.635 425.36 216.635C427.855 214.298 430.048 209.346 431.784 203.287L446.905 204.009C446.905 204.009 446.064 195.287 448.285 175.727C450.506 156.168 462.82 161.014 462.82 161.014C483.192 167.837 472.056 190.277 472.056 190.277Z" fill="black"/>
<path opacity="0.1" d="M412.306 213.158L409.661 212.913L408.959 201.734L411.282 201.946L412.306 213.158Z" fill="black"/>
<path d="M462.527 159.754C462.527 159.754 450.213 154.913 447.992 174.467C445.77 194.022 446.612 202.749 446.612 202.749L409.719 200.984L410.551 214.235C410.551 214.235 450.704 220.827 455.382 219.202C460.06 217.577 471.758 189.012 471.758 189.012C471.758 189.012 482.879 166.572 462.527 159.754Z" fill="#0981EF"/>
<path opacity="0.1" d="M463.354 130.8C462.815 127.877 465.868 127.915 466.965 125.165L446.617 131.516C448.029 133.413 449.289 135.417 450.386 137.512C451.442 137.826 452.526 138.035 453.622 138.137C458.473 138.599 459.988 133.824 463.354 130.8Z" fill="black"/>
<path d="M470.815 121.192C471.669 111.948 464.868 103.762 455.624 102.908C446.38 102.053 438.194 108.854 437.339 118.099C436.485 127.343 443.286 135.529 452.53 136.383C461.774 137.238 469.961 130.436 470.815 121.192Z" fill="#F8B9BF"/>
<path opacity="0.1" d="M437.491 104.461C437.698 106.211 439.544 107.279 441.26 107.673C442.977 108.067 444.838 108.086 446.343 109.005C448.747 110.486 449.396 113.774 449.093 116.602C448.925 118.198 448.684 120.155 449.992 121.083C450.403 121.334 450.861 121.498 451.338 121.564C452.702 121.84 454.103 121.889 455.483 121.708C456.291 121.602 457.122 121.419 457.887 121.645C459.147 122.011 459.892 123.338 460.137 124.622C460.382 125.905 460.248 127.242 460.445 128.535C460.72 130.155 461.479 131.653 462.622 132.832C463.765 134.012 465.239 134.817 466.849 135.142C467.604 135.325 468.399 135.254 469.109 134.94C470.023 134.459 470.489 133.435 470.883 132.478L473.768 125.574C475.066 122.463 476.374 119.323 477.066 116.025C478.095 111.057 477.696 105.899 475.917 101.148C475.235 99.3405 474.292 97.5279 472.691 96.4412C469.484 94.2631 464.998 95.7681 461.354 94.518C460.147 94.0997 459.06 93.3881 457.858 92.9601C455.257 92.0322 452.319 92.5226 449.814 93.691C447.309 94.8593 445.285 96.7009 443.083 98.3789C441.174 99.8646 437.13 101.437 437.491 104.461Z" fill="black"/>
<path d="M437.933 104.091C438.14 105.841 439.986 106.908 441.703 107.303C443.419 107.697 445.28 107.716 446.785 108.635C449.189 110.115 449.838 113.404 449.535 116.231C449.367 117.828 449.126 119.785 450.434 120.713C450.845 120.964 451.303 121.128 451.781 121.193C453.145 121.47 454.545 121.518 455.925 121.338C456.733 121.232 457.565 121.049 458.329 121.275C459.589 121.641 460.334 122.968 460.579 124.251C460.825 125.535 460.69 126.872 460.887 128.165C461.162 129.785 461.921 131.283 463.064 132.462C464.208 133.642 465.681 134.447 467.292 134.772C468.046 134.955 468.841 134.884 469.551 134.57C470.465 134.089 470.931 133.065 471.326 132.108L474.21 125.203C475.509 122.093 476.816 118.953 477.509 115.654C478.537 110.687 478.138 105.529 476.36 100.778C475.677 98.9703 474.735 97.1576 473.133 96.071C469.926 93.8929 465.44 95.3978 461.796 94.1477C460.589 93.7294 459.502 93.0178 458.3 92.5899C455.699 91.6619 452.761 92.1524 450.256 93.3207C447.751 94.4891 445.727 96.3306 443.525 98.0086C441.621 99.4944 437.577 101.067 437.933 104.091Z" fill="#B96B6B"/>
<path opacity="0.1" d="M451.857 170.496C451.857 170.496 445.439 195.431 439.049 197.739C432.659 200.047 435.481 200.7 435.481 200.7" fill="black"/>
<path d="M452.16 261.841H445.184V307.696H452.16V261.841Z" fill="#D6D6E3"/>
<path opacity="0.1" d="M452.16 261.841H445.184V265.24H452.16V261.841Z" fill="black"/>
<path d="M431.226 261.6V262.562C431.226 262.858 431.284 263.151 431.398 263.425C431.511 263.698 431.677 263.947 431.886 264.156C432.096 264.366 432.344 264.532 432.618 264.645C432.891 264.759 433.185 264.817 433.481 264.817H463.859C464.155 264.817 464.448 264.759 464.722 264.645C464.995 264.532 465.244 264.366 465.453 264.156C465.662 263.947 465.829 263.698 465.942 263.425C466.055 263.151 466.114 262.858 466.114 262.562V261.6C466.114 261.304 466.055 261.011 465.942 260.737C465.829 260.464 465.662 260.215 465.453 260.006C465.244 259.796 464.995 259.63 464.722 259.517C464.448 259.404 464.155 259.345 463.859 259.345H433.481C433.185 259.345 432.891 259.404 432.618 259.517C432.344 259.63 432.096 259.796 431.886 260.006C431.677 260.215 431.511 260.464 431.398 260.737C431.284 261.011 431.226 261.304 431.226 261.6Z" fill="#D6D6E3"/>
<path opacity="0.1" d="M431.745 260.167H465.599C465.388 259.91 465.122 259.703 464.821 259.56C464.52 259.418 464.192 259.345 463.859 259.345H433.481C433.149 259.345 432.821 259.419 432.521 259.561C432.221 259.704 431.956 259.911 431.745 260.167Z" fill="black"/>
<path d="M474.691 305.2H422.663C421.202 305.2 420.018 306.384 420.018 307.845V308.037C420.018 309.497 421.202 310.681 422.663 310.681H474.691C476.152 310.681 477.336 309.497 477.336 308.037V307.845C477.336 306.384 476.152 305.2 474.691 305.2Z" fill="#D6D6E3"/>
<path d="M474.095 317.663C476.023 317.663 477.586 316.1 477.586 314.172C477.586 312.244 476.023 310.682 474.095 310.682C472.167 310.682 470.604 312.244 470.604 314.172C470.604 316.1 472.167 317.663 474.095 317.663Z" fill="#535461"/>
<path d="M423.254 317.663C425.182 317.663 426.745 316.1 426.745 314.172C426.745 312.244 425.182 310.682 423.254 310.682C421.326 310.682 419.763 312.244 419.763 314.172C419.763 316.1 421.326 317.663 423.254 317.663Z" fill="#535461"/>
<path d="M448.675 317.663C450.602 317.663 452.165 316.1 452.165 314.172C452.165 312.244 450.602 310.682 448.675 310.682C446.747 310.682 445.184 312.244 445.184 314.172C445.184 316.1 446.747 317.663 448.675 317.663Z" fill="#535461"/>
<path d="M492 205.518H445.347C443.09 205.518 441.26 207.348 441.26 209.605V209.903C441.26 212.16 443.09 213.99 445.347 213.99H492C494.258 213.99 496.087 212.16 496.087 209.903V209.605C496.087 207.348 494.258 205.518 492 205.518Z" fill="#D6D6E3"/>
<path opacity="0.1" d="M452.16 305.2C452.16 305.2 449.42 307.907 445.184 305.2H452.16Z" fill="black"/>
<path opacity="0.1" d="M496.087 209.841V210.509C496.087 211.434 495.72 212.32 495.066 212.974C494.413 213.628 493.526 213.995 492.602 213.995H444.746C443.822 213.995 442.935 213.628 442.281 212.974C441.628 212.32 441.26 211.434 441.26 210.509V209.841H496.087Z" fill="black"/>
<path d="M404.868 217.63H395.439V337.766H404.868V217.63Z" fill="#D6D6E3"/>
<path opacity="0.1" d="M404.868 217.63H395.439V225.419H404.868V217.63Z" fill="black"/>
<path d="M118.977 265.12H112V310.975H118.977V265.12Z" fill="#D6D6E3"/>
<path opacity="0.1" d="M118.977 265.12H112V268.519H118.977V265.12Z" fill="black"/>
<path d="M132.93 264.884V265.846C132.93 266.444 132.692 267.017 132.27 267.44C131.847 267.863 131.273 268.101 130.675 268.101H100.297C99.6993 268.101 99.1257 267.863 98.7028 267.44C98.2799 267.017 98.0424 266.444 98.0424 265.846V264.884C98.0474 264.289 98.2872 263.721 98.7096 263.302C99.1319 262.883 99.7026 262.648 100.297 262.648H130.675C130.971 262.648 131.264 262.707 131.538 262.82C131.812 262.933 132.06 263.1 132.27 263.309C132.479 263.518 132.645 263.767 132.758 264.04C132.872 264.314 132.93 264.607 132.93 264.903V264.884Z" fill="#D6D6E3"/>
<path opacity="0.1" d="M132.416 263.446H98.5569C98.7702 263.193 99.0369 262.991 99.3378 262.853C99.6387 262.715 99.9664 262.645 100.297 262.648H130.675C131.006 262.645 131.334 262.715 131.635 262.853C131.936 262.991 132.202 263.193 132.416 263.446Z" fill="black"/>
<path d="M141.503 308.479H89.4743C88.0138 308.479 86.8299 309.663 86.8299 311.124V311.316C86.8299 312.777 88.0138 313.961 89.4743 313.961H141.503C142.963 313.961 144.147 312.777 144.147 311.316V311.124C144.147 309.663 142.963 308.479 141.503 308.479Z" fill="#D6D6E3"/>
<path d="M90.0705 320.942C91.9984 320.942 93.5612 319.379 93.5612 317.451C93.5612 315.523 91.9984 313.961 90.0705 313.961C88.1427 313.961 86.5798 315.523 86.5798 317.451C86.5798 319.379 88.1427 320.942 90.0705 320.942Z" fill="#535461"/>
<path d="M140.907 320.942C142.835 320.942 144.397 319.379 144.397 317.451C144.397 315.523 142.835 313.961 140.907 313.961C138.979 313.961 137.416 315.523 137.416 317.451C137.416 319.379 138.979 320.942 140.907 320.942Z" fill="#535461"/>
<path d="M115.486 320.942C117.414 320.942 118.977 319.379 118.977 317.451C118.977 315.523 117.414 313.961 115.486 313.961C113.558 313.961 111.996 315.523 111.996 317.451C111.996 319.379 113.558 320.942 115.486 320.942Z" fill="#535461"/>
<path opacity="0.1" d="M112 308.479C112 308.479 114.741 311.186 118.977 308.479H112Z" fill="black"/>
<path d="M289.983 170.438C289.983 170.438 282.155 156.211 285.016 143.845C286.248 138.665 285.767 133.226 283.645 128.343C282.627 126.034 281.399 123.822 279.977 121.737" stroke="#535461" stroke-width="2" stroke-miterlimit="10"/>
<path d="M281.713 113.928C282.121 115.794 279.934 121.943 279.934 121.943C279.934 121.943 275.371 117.28 274.957 115.414C274.819 114.958 274.776 114.478 274.832 114.005C274.888 113.532 275.041 113.075 275.282 112.664C275.522 112.253 275.845 111.896 276.231 111.615C276.616 111.335 277.055 111.137 277.52 111.034C277.985 110.932 278.467 110.926 278.934 111.019C279.402 111.111 279.845 111.299 280.237 111.57C280.628 111.842 280.959 112.192 281.209 112.598C281.459 113.003 281.622 113.456 281.689 113.928H281.713Z" fill="#0981EF"/>
<path d="M289.564 123.03C288.896 124.819 283.718 128.8 283.718 128.8C283.718 128.8 282.419 122.405 283.093 120.626C283.237 120.183 283.469 119.774 283.775 119.423C284.082 119.072 284.456 118.786 284.875 118.584C285.294 118.381 285.75 118.265 286.216 118.243C286.681 118.221 287.146 118.293 287.583 118.455C288.02 118.617 288.419 118.866 288.757 119.186C289.095 119.507 289.365 119.892 289.551 120.319C289.736 120.747 289.834 121.207 289.837 121.673C289.84 122.139 289.749 122.6 289.569 123.03H289.564Z" fill="#0981EF"/>
<path d="M293.199 140.734C291.718 141.94 285.242 142.753 285.242 142.753C285.242 142.753 287.352 136.579 288.833 135.373C289.185 135.081 289.591 134.862 290.027 134.729C290.463 134.595 290.922 134.549 291.376 134.594C291.831 134.638 292.272 134.772 292.674 134.988C293.076 135.204 293.432 135.497 293.72 135.851C294.008 136.205 294.224 136.613 294.354 137.05C294.483 137.488 294.525 137.947 294.477 138.401C294.429 138.855 294.291 139.295 294.071 139.695C293.852 140.095 293.556 140.448 293.199 140.734Z" fill="#0981EF"/>
<path d="M292.935 154.744C291.68 156.187 285.434 158.081 285.434 158.081C285.434 158.081 286.468 151.638 287.723 150.201C288.016 149.843 288.379 149.548 288.788 149.332C289.198 149.117 289.647 148.986 290.108 148.948C290.57 148.91 291.034 148.964 291.474 149.108C291.914 149.253 292.32 149.484 292.669 149.788C293.017 150.093 293.301 150.464 293.504 150.88C293.707 151.296 293.824 151.749 293.848 152.211C293.872 152.673 293.804 153.136 293.646 153.571C293.488 154.006 293.245 154.405 292.93 154.744H292.935Z" fill="#0981EF"/>
<path d="M276.707 130.709C278.332 131.714 284.857 131.67 284.857 131.67C284.857 131.67 281.972 125.819 280.347 124.814C279.961 124.56 279.528 124.386 279.074 124.303C278.62 124.219 278.154 124.227 277.703 124.327C277.252 124.426 276.825 124.615 276.448 124.882C276.072 125.149 275.752 125.489 275.509 125.882C275.266 126.275 275.104 126.712 275.032 127.168C274.961 127.625 274.982 128.091 275.093 128.539C275.205 128.987 275.405 129.408 275.683 129.777C275.96 130.147 276.308 130.457 276.707 130.689V130.709Z" fill="#0981EF"/>
<path d="M276.611 147.104C278.462 147.585 284.679 145.604 284.679 145.604C284.679 145.604 280.174 140.883 278.323 140.412C277.45 140.226 276.539 140.385 275.781 140.856C275.022 141.326 274.476 142.072 274.254 142.936C274.033 143.801 274.155 144.718 274.594 145.495C275.034 146.271 275.756 146.848 276.611 147.104Z" fill="#0981EF"/>
<path d="M278.693 163.048C280.434 163.827 286.901 162.933 286.901 162.933C286.901 162.933 283.256 157.519 281.515 156.74C280.678 156.366 279.727 156.339 278.87 156.667C278.013 156.994 277.322 157.648 276.948 158.485C276.573 159.322 276.547 160.274 276.874 161.131C277.202 161.987 277.856 162.679 278.693 163.053V163.048Z" fill="#0981EF"/>
<path d="M281.713 113.928C282.121 115.794 279.934 121.943 279.934 121.943C279.934 121.943 275.371 117.28 274.957 115.414C274.819 114.958 274.776 114.478 274.832 114.005C274.888 113.532 275.041 113.075 275.282 112.664C275.522 112.253 275.845 111.896 276.231 111.615C276.616 111.335 277.055 111.137 277.52 111.034C277.985 110.932 278.467 110.926 278.934 111.019C279.402 111.111 279.845 111.299 280.237 111.57C280.628 111.842 280.959 112.192 281.209 112.598C281.459 113.003 281.622 113.456 281.689 113.928H281.713Z" fill="#0981EF"/>
<path d="M289.564 123.03C288.896 124.819 283.718 128.8 283.718 128.8C283.718 128.8 282.419 122.405 283.093 120.626C283.237 120.183 283.469 119.774 283.775 119.423C284.082 119.072 284.456 118.786 284.875 118.584C285.294 118.381 285.75 118.265 286.216 118.243C286.681 118.221 287.146 118.293 287.583 118.455C288.02 118.617 288.419 118.866 288.757 119.186C289.095 119.507 289.365 119.892 289.551 120.319C289.736 120.747 289.834 121.207 289.837 121.673C289.84 122.139 289.749 122.6 289.569 123.03H289.564Z" fill="#0981EF"/>
<path d="M293.199 140.734C291.718 141.94 285.242 142.753 285.242 142.753C285.242 142.753 287.352 136.579 288.833 135.373C289.185 135.081 289.591 134.862 290.027 134.729C290.463 134.595 290.922 134.549 291.376 134.594C291.831 134.638 292.272 134.772 292.674 134.988C293.076 135.204 293.432 135.497 293.72 135.851C294.008 136.205 294.224 136.613 294.354 137.05C294.483 137.488 294.525 137.947 294.477 138.401C294.429 138.855 294.291 139.295 294.071 139.695C293.852 140.095 293.556 140.448 293.199 140.734Z" fill="#0981EF"/>
<path d="M292.935 154.744C291.68 156.187 285.434 158.081 285.434 158.081C285.434 158.081 286.468 151.638 287.723 150.201C288.016 149.843 288.379 149.548 288.788 149.332C289.198 149.117 289.647 148.986 290.108 148.948C290.57 148.91 291.034 148.964 291.474 149.108C291.914 149.253 292.32 149.484 292.669 149.788C293.017 150.093 293.301 150.464 293.504 150.88C293.707 151.296 293.824 151.749 293.848 152.211C293.872 152.673 293.804 153.136 293.646 153.571C293.488 154.006 293.245 154.405 292.93 154.744H292.935Z" fill="#0981EF"/>
<path d="M276.707 130.709C278.332 131.714 284.857 131.67 284.857 131.67C284.857 131.67 281.972 125.819 280.347 124.814C279.961 124.56 279.528 124.386 279.074 124.303C278.62 124.219 278.154 124.227 277.703 124.327C277.252 124.426 276.825 124.615 276.448 124.882C276.072 125.149 275.752 125.489 275.509 125.882C275.266 126.275 275.104 126.712 275.032 127.168C274.961 127.625 274.982 128.091 275.093 128.539C275.205 128.987 275.405 129.408 275.683 129.777C275.96 130.147 276.308 130.457 276.707 130.689V130.709Z" fill="#0981EF"/>
<path d="M276.611 147.104C278.462 147.585 284.679 145.604 284.679 145.604C284.679 145.604 280.174 140.883 278.323 140.412C277.45 140.226 276.539 140.385 275.781 140.856C275.022 141.326 274.476 142.072 274.254 142.936C274.033 143.801 274.155 144.718 274.594 145.495C275.034 146.271 275.756 146.848 276.611 147.104Z" fill="#0981EF"/>
<path d="M278.693 163.048C280.434 163.827 286.901 162.933 286.901 162.933C286.901 162.933 283.256 157.519 281.515 156.74C280.678 156.366 279.727 156.339 278.87 156.667C278.013 156.994 277.322 157.648 276.948 158.485C276.573 159.322 276.547 160.274 276.874 161.131C277.202 161.987 277.856 162.679 278.693 163.053V163.048Z" fill="#0981EF"/>
<path d="M286.8 209.899C285.673 209.899 284.559 209.668 283.526 209.221C282.492 208.774 281.561 208.12 280.79 207.299C280.019 206.478 279.425 205.508 279.043 204.448C278.662 203.389 278.502 202.262 278.573 201.138L280.876 164.645H292.723L295.026 201.138C295.097 202.262 294.937 203.389 294.556 204.448C294.174 205.508 293.58 206.478 292.809 207.299C292.038 208.12 291.107 208.774 290.074 209.221C289.04 209.668 287.926 209.899 286.8 209.899Z" fill="#0981EF"/>
<path opacity="0.1" d="M46.9273 30.4932H40.1959V58.3803H46.9273V30.4932Z" fill="#0981EF"/>
<path opacity="0.1" d="M55.5819 30.4932H48.8505V58.3803H55.5819V30.4932Z" fill="#0981EF"/>
<path opacity="0.1" d="M64.2365 30.4932H57.5051V58.3803H64.2365V30.4932Z" fill="#0981EF"/>
<path opacity="0.1" d="M72.8911 30.4932H66.1598V58.3803H72.8911V30.4932Z" fill="#0981EF"/>
<path opacity="0.1" d="M90.2004 30.4932H83.469V58.3803H90.2004V30.4932Z" fill="#0981EF"/>
<path opacity="0.1" d="M98.855 30.4932H92.1236V58.3803H98.855V30.4932Z" fill="#0981EF"/>
<path opacity="0.1" d="M46.9273 35.7821H40.1959V37.2245H46.9273V35.7821Z" fill="#0981EF"/>
<path opacity="0.1" d="M46.9273 53.0913H40.1959V54.5337H46.9273V53.0913Z" fill="#0981EF"/>
<path opacity="0.1" d="M55.5819 35.7821H48.8505V37.2245H55.5819V35.7821Z" fill="#0981EF"/>
<path opacity="0.1" d="M55.5819 53.0913H48.8505V54.5337H55.5819V53.0913Z" fill="#0981EF"/>
<path opacity="0.1" d="M64.2365 35.7821H57.5051V37.2245H64.2365V35.7821Z" fill="#0981EF"/>
<path opacity="0.1" d="M64.2365 53.0913H57.5051V54.5337H64.2365V53.0913Z" fill="#0981EF"/>
<path opacity="0.1" d="M72.8911 35.7821H66.1598V37.2245H72.8911V35.7821Z" fill="#0981EF"/>
<path opacity="0.1" d="M72.8911 53.0913H66.1598V54.5337H72.8911V53.0913Z" fill="#0981EF"/>
<path opacity="0.1" d="M81.5457 35.7821H74.8144V37.2245H81.5457V35.7821Z" fill="#0981EF"/>
<path opacity="0.1" d="M81.5457 53.0913H74.8144V54.5337H81.5457V53.0913Z" fill="#0981EF"/>
<path opacity="0.1" d="M90.2004 35.7821H83.469V37.2245H90.2004V35.7821Z" fill="#0981EF"/>
<path opacity="0.1" d="M90.2004 53.0913H83.469V54.5337H90.2004V53.0913Z" fill="#0981EF"/>
<path opacity="0.1" d="M98.855 35.7821H92.1236V37.2245H98.855V35.7821Z" fill="#0981EF"/>
<path opacity="0.1" d="M98.855 53.0913H92.1236V54.5337H98.855V53.0913Z" fill="#0981EF"/>
<path opacity="0.1" d="M81.5457 30.4932H74.8144V58.3803H81.5457V30.4932Z" fill="#0981EF"/>
<path opacity="0.1" d="M105.185 30.3651L99.0766 33.1929L110.792 58.5L116.9 55.6722L105.185 30.3651Z" fill="#0981EF"/>
<path opacity="0.1" d="M107.409 35.1693L101.3 37.9971L101.906 39.3061L108.015 36.4783L107.409 35.1693Z" fill="#0981EF"/>
<path opacity="0.1" d="M114.676 50.8755L108.568 53.7032L109.174 55.0122L115.282 52.1845L114.676 50.8755Z" fill="#0981EF"/>
<path d="M187.103 318.043L174.886 310.249C174.823 299.272 174.65 248.311 176.934 241.493C177.523 239.519 177.556 237.421 177.03 235.43C175.443 228.501 169.655 223.328 162.639 222.188C156.023 221.111 146.503 219.346 138.839 217.067C145.672 216.361 150.792 215.75 150.792 215.75L150.927 214.485L155.326 214.274V214.086L155.745 214.062C166.02 213.452 187.839 211.418 180.425 205.331C177.881 203.244 174.564 202.258 171.063 201.927C181.766 199.484 198.494 194.753 191.036 190.305C183.949 186.084 173.097 189.402 166.621 192.099L166.222 192.267L166.149 191.685L163.563 192.205L162.74 192.368L162.702 191.522L126.405 197.128C126.121 192.969 125.627 188.827 124.925 184.718C125.737 179.304 129.516 171.41 128.184 167.174C126.636 162.255 120.28 160.644 117.607 156.201C116.905 155.043 116.207 153.956 115.525 153.004C114.03 150.973 112.313 149.117 110.404 147.47C110.52 144.613 111.158 141.802 112.289 139.176C113.013 137.419 113.862 135.716 114.828 134.079C119.058 133.03 122.729 130.406 125.091 126.743C127.454 123.079 128.33 118.653 127.54 114.366C129.838 115.352 132.632 115.453 134.07 113.529L133.387 113.265C133.454 113.193 133.521 113.121 133.579 113.039C132.18 112.505 130.694 111.899 129.598 110.928C129.32 110.616 129.086 110.269 128.901 109.894C128.237 108.548 128.314 106.933 127.68 105.567C127.381 104.945 126.957 104.392 126.434 103.942C125.321 102.804 123.912 101.998 122.367 101.615C120.631 101.11 118.804 100.855 117.14 100.172C114.873 97.5397 111.88 95.6339 108.535 94.6932C105.191 93.7525 101.643 93.8187 98.3357 94.8835L97.7347 95.0902C98.152 93.0778 97.7627 90.9819 96.6504 89.2537C95.5381 87.5254 93.7918 86.3029 91.7872 85.8491C89.7827 85.3954 87.6801 85.7468 85.932 86.8276C84.1839 87.9085 82.9299 89.6324 82.44 91.6284C82.5925 89.8761 83.331 88.2263 84.5364 86.9453C84.4114 87.0511 84.2815 87.152 84.1613 87.2626C83.4106 87.9685 82.8062 88.8154 82.3827 89.7549C81.9592 90.6944 81.7249 91.7081 81.6932 92.7381C81.6615 93.7681 81.833 94.7943 82.1979 95.7581C82.5628 96.7218 83.114 97.6042 83.82 98.355L83.9594 98.4896C84.5145 99.1688 85.1792 99.7506 85.9259 100.211C84.5516 99.7256 83.3397 98.8671 82.4259 97.7316C81.5121 96.5962 80.9326 95.2287 80.7524 93.7824C80.7524 93.9459 80.7524 94.1094 80.7524 94.2632C80.8124 95.2965 81.0761 96.3077 81.5286 97.2386C81.981 98.1694 82.6131 99.0016 83.3885 99.6872C84.1639 100.373 85.0672 100.898 86.0465 101.233C87.0258 101.568 88.0617 101.706 89.0945 101.639L89.3108 101.615L89.1954 101.774C86.9594 105.062 85.8995 109.01 86.1875 112.976C86.4755 116.942 88.0945 120.695 90.7821 123.626C91.1012 124.357 91.5257 125.038 92.0419 125.646C92.2232 125.853 92.4175 126.049 92.6236 126.232C93.9405 127.622 95.7412 128.452 97.6529 128.55C97.9735 128.931 98.3148 129.298 98.677 129.651C98.36 131 97.9454 132.324 97.4366 133.613C96.4119 136.18 95.1364 138.639 93.6285 140.955C83.243 143.907 82.3294 161.543 82.7045 162.212C83.1516 163.01 81.1563 190.705 88.8493 224.159C88.5319 233.723 94.1093 249.537 113.909 245.368C138.671 246.69 146.792 250.484 146.792 250.484C146.792 250.484 144.441 293.55 147.797 299.82C149.898 303.748 148.407 309.518 146.835 313.59C146.252 314.598 145.788 315.669 145.45 316.783C144.97 317.798 144.619 318.413 144.619 318.413H144.955C143.686 322.822 142.787 328.145 142.787 328.145C142.787 328.145 172.804 334.236 186.007 330.251C191.132 328.702 191.344 327.27 189.68 326.087C190.906 325.907 192.117 325.641 193.306 325.293C206.518 321.307 187.103 318.043 187.103 318.043Z" fill="url(#paint1_linear)"/>
<path d="M121.79 113.597C121.79 117.02 120.774 120.367 118.873 123.213C116.971 126.06 114.267 128.278 111.104 129.588C107.942 130.898 104.461 131.241 101.104 130.573C97.7459 129.905 94.6617 128.257 92.241 125.836C89.8202 123.415 88.1717 120.331 87.5038 116.973C86.8359 113.616 87.1787 110.135 88.4888 106.973C89.7989 103.81 92.0175 101.106 94.8639 99.2045C97.7104 97.3025 101.057 96.2874 104.48 96.2874C106.754 96.2874 109.004 96.7351 111.104 97.6049C113.204 98.4748 115.113 99.7498 116.72 101.357C118.327 102.964 119.602 104.873 120.472 106.973C121.342 109.073 121.79 111.324 121.79 113.597Z" fill="#FA595F"/>
<path d="M160.779 194.916L162.534 203.677C162.534 203.677 164.486 203.326 167.375 202.715C177.247 200.624 198.104 195.46 190.026 190.642C183.079 186.502 172.438 189.757 166.092 192.402C163.765 193.363 162.014 194.258 161.231 194.676C160.937 194.825 160.779 194.916 160.779 194.916Z" fill="#F8B9BF"/>
<path opacity="0.1" d="M161.274 197.388L162.534 203.677C162.534 203.677 164.486 203.326 167.376 202.715L166.092 192.402C163.765 193.363 162.014 194.258 161.231 194.676L161.274 197.388Z" fill="black"/>
<path d="M160.971 204.22L167 203.013L165.635 191.998L160.808 192.964L160.971 204.22Z" fill="#D9DFE8"/>
<path opacity="0.1" d="M160.971 204.22L163.572 203.696L163.096 192.508L160.808 192.964L160.971 204.22Z" fill="black"/>
<path d="M105.399 156.389C105.399 156.389 117.135 150.273 121.4 169.491C125.665 188.709 125.728 197.469 125.728 197.469L162.231 191.83L162.798 205.095C162.798 205.095 123.564 215.88 118.741 214.755C113.919 213.63 99.2781 186.459 99.2781 186.459C99.2781 186.459 85.8634 165.327 105.399 156.389Z" fill="#0981EF"/>
<g opacity="0.1">
<path opacity="0.1" d="M160.779 194.916L162.534 203.677C162.534 203.677 164.486 203.326 167.375 202.715C177.247 200.624 198.104 195.46 190.027 190.642C183.079 186.502 172.438 189.757 166.092 192.402C163.765 193.363 162.014 194.258 161.231 194.676C160.937 194.825 160.779 194.916 160.779 194.916Z" fill="black"/>
<path opacity="0.1" d="M161.274 197.388L162.534 203.677C162.534 203.677 164.486 203.326 167.376 202.715L166.092 192.402C163.765 193.363 162.014 194.258 161.231 194.676L161.274 197.388Z" fill="black"/>
<path opacity="0.1" d="M160.971 204.22L167 203.013L165.635 191.998L160.808 192.964L160.971 204.22Z" fill="black"/>
<path opacity="0.1" d="M160.971 204.22L163.572 203.696L163.096 192.508L160.808 192.964L160.971 204.22Z" fill="black"/>
<path opacity="0.1" d="M106.36 157.351C106.36 157.351 118.097 151.235 122.362 170.453C126.627 189.671 126.689 198.431 126.689 198.431L163.192 192.791L163.76 206.057C163.76 206.057 124.526 216.841 119.703 215.716C114.88 214.591 100.24 187.421 100.24 187.421C100.24 187.421 86.825 166.289 106.36 157.351Z" fill="black"/>
</g>
<path d="M171.794 306.744L186.19 315.879C186.19 315.879 205.225 319.067 192.277 322.976C179.328 326.885 149.903 320.908 149.903 320.908C149.903 320.908 152.139 307.667 154.519 305.912C156.899 304.157 171.794 306.744 171.794 306.744Z" fill="#F37291"/>
<path d="M118.424 208.749C118.424 208.749 125.602 212.918 138.512 216.813C146.08 219.096 155.6 220.861 162.178 221.933C165.552 222.454 168.695 223.966 171.208 226.278C173.721 228.59 175.49 231.596 176.29 234.915C176.806 236.867 176.774 238.923 176.198 240.858C173.689 248.368 174.198 310.321 174.198 310.321L151.677 311.403C151.677 311.403 155.24 300.147 150.85 294.204C146.46 288.261 153.812 244.81 153.812 244.81C153.812 244.81 145.835 241.089 121.554 239.795C98.7972 244.604 90.6186 219.529 94.3978 212.779C98.177 206.028 118.424 208.749 118.424 208.749Z" fill="#96A2D0"/>
<g opacity="0.1">
<path opacity="0.1" d="M171.794 306.744L186.19 315.879C186.19 315.879 205.225 319.067 192.277 322.976C179.328 326.885 149.903 320.908 149.903 320.908C149.903 320.908 152.139 307.667 154.519 305.912C156.899 304.157 171.794 306.744 171.794 306.744Z" fill="black"/>
<path opacity="0.1" d="M118.424 208.749C118.424 208.749 125.602 212.918 138.512 216.813C146.08 219.096 155.6 220.861 162.178 221.933C165.552 222.454 168.695 223.966 171.208 226.278C173.721 228.59 175.49 231.596 176.29 234.915C176.806 236.867 176.774 238.923 176.198 240.858C173.689 248.368 174.198 310.321 174.198 310.321L151.677 311.403C151.677 311.403 155.24 300.147 150.85 294.204C146.46 288.261 153.812 244.81 153.812 244.81C153.812 244.81 145.835 241.089 121.554 239.795C98.7972 244.604 90.6186 219.529 94.3978 212.779C98.177 206.028 118.424 208.749 118.424 208.749Z" fill="black"/>
</g>
<path d="M164.62 311.605L179.016 320.74C179.016 320.74 198.051 323.928 185.103 327.837C172.155 331.746 142.729 325.769 142.729 325.769C142.729 325.769 144.965 312.528 147.345 310.773C149.725 309.018 164.62 311.605 164.62 311.605Z" fill="#F37291"/>
<path d="M114.404 244.652C138.685 245.945 146.662 249.666 146.662 249.666C146.662 249.666 144.359 291.891 147.624 298.036C151.11 304.556 144.508 316.259 144.508 316.259L167.029 315.177C167.029 315.177 167.029 314.446 167.029 313.138C166.962 302.378 166.798 252.412 169.034 245.714C169.61 243.779 169.642 241.723 169.126 239.771C168.325 236.452 166.556 233.446 164.043 231.135C161.531 228.823 158.388 227.311 155.014 226.789C148.431 225.722 138.916 223.957 131.348 221.674L130.978 221.558C118.299 217.712 111.265 213.61 111.265 213.61C111.265 213.61 96.2682 212.572 92.513 219.322C92.0322 220.197 89.9599 221.919 89.8734 223.308C89.3108 232.607 94.6046 248.82 114.404 244.652Z" fill="#96A2D0"/>
<path d="M150.066 205.239L150.494 214.163C150.494 214.163 152.475 214.11 155.427 213.933C165.5 213.332 186.896 211.341 179.627 205.374C173.376 200.244 162.365 201.879 155.697 203.547C153.249 204.162 151.369 204.778 150.552 205.071C150.235 205.177 150.066 205.239 150.066 205.239Z" fill="#F8B9BF"/>
<path d="M92.941 144.508C92.941 144.508 95.8259 146.994 99.4031 149.744C103.394 150.831 108.058 151.797 111.39 152.437C110.356 148.518 111.274 144.263 112.799 140.517C114.453 136.621 116.647 132.978 119.318 129.694L99.2685 122.448C100.687 126.559 99.7493 131.151 98.2251 135.079C96.8796 138.438 95.1034 141.607 92.941 144.508Z" fill="#F8B9BF"/>
<path opacity="0.1" d="M150.186 207.754L150.494 214.163C150.494 214.163 152.475 214.11 155.427 213.932L155.697 203.542C153.249 204.158 151.369 204.773 150.552 205.066L150.186 207.754Z" fill="black"/>
<path d="M148.869 214.466L155.009 214.173L155.297 203.076L150.384 203.311L148.869 214.466Z" fill="#D9DFE8"/>
<path d="M90.3109 225.905C103.293 239.401 127.502 223.361 134.012 218.611C135.07 217.837 135.661 217.361 135.661 217.361C133.257 214.913 129.411 212.649 127.934 206.518C126.526 200.262 125.572 193.911 125.078 187.517C124.679 182.444 129.92 172.785 128.406 167.967C126.891 163.149 120.655 161.567 118.035 157.206C117.347 156.072 116.664 155.004 115.991 154.071C111.154 147.34 102.725 142.806 102.725 142.806C84.7672 136.676 83.3584 162.322 83.8055 163.12C84.2527 163.918 82.1996 192.19 90.3109 225.905Z" fill="#0981EF"/>
<path opacity="0.1" d="M90.1763 188.969C90.1763 188.969 100.605 218.019 105.206 219.851C107.841 220.899 122.213 219.77 134.012 218.611C135.07 217.837 135.661 217.361 135.661 217.361C133.257 214.913 131.3 209.87 129.829 203.744L114.688 203.797C114.688 203.797 115.914 195.142 114.558 175.482C113.202 155.822 100.687 160.144 100.687 160.144C80.0456 166.063 90.1763 188.969 90.1763 188.969Z" fill="black"/>
<path opacity="0.1" d="M148.869 214.466L151.518 214.341L152.716 203.201L150.384 203.311L148.869 214.466Z" fill="black"/>
<path d="M101.043 158.894C101.043 158.894 113.544 154.6 114.914 174.232C116.284 193.863 115.058 202.547 115.058 202.547L151.994 202.412L150.576 215.615C150.576 215.615 110.188 220.423 105.572 218.601C100.956 216.779 90.5369 187.723 90.5369 187.723C90.5369 187.723 80.3966 164.813 101.043 158.894Z" fill="#0981EF"/>
<path opacity="0.1" d="M101.499 129.944C102.168 127.059 99.0954 126.968 98.1338 124.175L118.193 131.387C116.699 133.219 115.352 135.165 114.164 137.209C113.096 137.476 112.004 137.637 110.904 137.69C106.029 137.931 104.726 133.108 101.499 129.944Z" fill="black"/>
<path d="M112.048 136.006C121.321 135.561 128.477 127.682 128.032 118.41C127.586 109.137 119.708 101.981 110.435 102.426C101.162 102.872 94.0065 110.75 94.4519 120.023C94.8973 129.295 102.775 136.451 112.048 136.006Z" fill="#F8B9BF"/>
<path opacity="0.1" d="M102.557 171.361C102.557 171.361 107.875 196.551 114.154 199.124C120.434 201.696 117.587 202.244 117.587 202.244" fill="black"/>
<path opacity="0.1" d="M124.473 185.589C124.473 185.589 120.03 186.978 114.856 180.338L124.473 185.589Z" fill="black"/>
<path d="M91.0177 103.5C95.2665 103.5 98.7107 100.055 98.7107 95.8066C98.7107 91.5579 95.2665 88.1136 91.0177 88.1136C86.769 88.1136 83.3247 91.5579 83.3247 95.8066C83.3247 100.055 86.769 103.5 91.0177 103.5Z" fill="#FA595F"/>
<path d="M85.6134 99.8695C84.2761 98.4435 83.5318 96.5619 83.5318 94.607C83.5318 92.652 84.2761 90.7704 85.6134 89.3445C85.4884 89.4455 85.3634 89.5464 85.248 89.657C83.7611 91.0546 82.8903 92.9857 82.8272 95.0253C82.7641 97.0649 83.5138 99.0461 84.9114 100.533C86.309 102.02 88.24 102.891 90.2797 102.954C92.3193 103.017 94.3005 102.267 95.7874 100.87C95.9076 100.759 96.0134 100.639 96.1191 100.523C94.6128 101.77 92.6883 102.396 90.7369 102.274C88.7855 102.153 86.9536 101.293 85.6134 99.8695Z" fill="#FA595F"/>
<path d="M90.008 102.774C88.0555 102.891 86.1316 102.261 84.6275 101.01C83.1234 99.7597 82.1521 97.9833 81.9111 96.0422C81.9111 96.2009 81.9111 96.3595 81.9111 96.523C82.0387 98.5595 82.9699 100.462 84.5001 101.812C85.2578 102.48 86.1397 102.993 87.0955 103.32C88.0512 103.648 89.0622 103.784 90.0705 103.721C91.0789 103.658 92.0649 103.396 92.9724 102.952C93.8798 102.508 94.6909 101.889 95.3593 101.132C96.0276 100.374 96.5402 99.4922 96.8678 98.5364C97.1953 97.5807 97.3314 96.5697 97.2683 95.5614C97.2683 95.3979 97.2346 95.244 97.2154 95.0806C97.2193 97.0395 96.4758 98.9261 95.1365 100.356C93.7972 101.785 91.963 102.65 90.008 102.774Z" fill="#FA595F"/>
<path opacity="0.1" d="M117.438 102.495C119.232 103.379 121.285 103.625 123.208 104.182C125.131 104.74 127.093 105.759 127.939 107.577C128.56 108.914 128.487 110.495 129.137 111.818C130.069 113.741 132.223 114.626 134.204 115.38C132.502 117.664 128.848 117.044 126.463 115.491C124.078 113.938 122.025 111.645 119.251 111.044C117.882 110.774 116.464 110.933 115.189 111.5C113.914 112.067 112.846 113.015 112.13 114.212C111.37 115.544 111.101 117.097 110.726 118.578C109.765 122.482 107.841 126.367 104.476 128.584C101.11 130.8 96.0951 130.786 93.4554 127.752C91.9168 125.982 91.4024 123.573 90.9456 121.275C90.6855 120.204 90.5611 119.104 90.5754 118.001C90.7292 115.241 92.5659 112.89 94.4219 110.842C96.6096 108.438 98.9367 106.13 101.264 103.836C103.274 101.855 105.591 98.4991 108.62 98.2636C112.111 97.9847 114.578 101.096 117.438 102.495Z" fill="black"/>
<path d="M116.958 102.014C118.751 102.899 120.804 103.144 122.727 103.702C124.651 104.259 126.612 105.279 127.458 107.096C128.079 108.433 128.007 110.015 128.656 111.337C129.588 113.26 131.742 114.145 133.723 114.9C132.021 117.183 128.367 116.563 125.982 115.01C123.598 113.457 121.544 111.164 118.77 110.563C117.401 110.293 115.983 110.452 114.708 111.019C113.433 111.587 112.365 112.534 111.649 113.731C110.89 115.063 110.62 116.616 110.245 118.097C109.284 122.001 107.361 125.886 103.995 128.103C100.629 130.319 95.6143 130.305 92.9746 127.271C91.436 125.502 90.9216 123.093 90.4648 120.794C90.2047 119.723 90.0803 118.623 90.0946 117.52C90.2484 114.76 92.0851 112.409 93.9411 110.361C96.1288 107.957 98.4559 105.649 100.783 103.355C102.793 101.374 105.11 98.0183 108.139 97.7827C111.63 97.5038 114.097 100.615 116.958 102.014Z" fill="#FA595F"/>
<path d="M118.813 208.797H72.1603C69.9031 208.797 68.0734 210.627 68.0734 212.884V213.182C68.0734 215.439 69.9031 217.269 72.1603 217.269H118.813C121.071 217.269 122.9 215.439 122.9 213.182V212.884C122.9 210.627 121.071 208.797 118.813 208.797Z" fill="#D6D6E3"/>
<path opacity="0.1" d="M68.0734 213.125V213.793C68.0734 214.718 68.4406 215.604 69.0944 216.258C69.7481 216.912 70.6347 217.279 71.5593 217.279H119.414C120.339 217.279 121.226 216.912 121.879 216.258C122.533 215.604 122.9 214.718 122.9 213.793V213.125H68.0734Z" fill="black"/>
<path d="M174.054 217.63H164.625V337.751H174.054V217.63Z" fill="#D6D6E3"/>
<path opacity="0.1" d="M174.054 217.63H164.625V225.419H174.054V217.63Z" fill="black"/>
<path d="M409.378 209.019H160.115V224.597H409.378V209.019Z" fill="#D6D6E3"/>
</g>
</g>
<defs>
<linearGradient id="paint0_linear" x1="415.467" y1="333.677" x2="437.745" y2="86.1497" gradientUnits="userSpaceOnUse">
<stop stop-color="#808080" stop-opacity="0.25"/>
<stop offset="0.54" stop-color="#808080" stop-opacity="0.12"/>
<stop offset="1" stop-color="#808080" stop-opacity="0.1"/>
</linearGradient>
<linearGradient id="paint1_linear" x1="38684.7" y1="174310" x2="38684.7" y2="48537.3" gradientUnits="userSpaceOnUse">
<stop stop-color="#808080" stop-opacity="0.25"/>
<stop offset="0.54" stop-color="#808080" stop-opacity="0.12"/>
<stop offset="1" stop-color="#808080" stop-opacity="0.1"/>
</linearGradient>
<clipPath id="clip0">
<rect width="538.803" height="414.71" fill="white"/>
</clipPath>
</defs>
</svg>
