<svg width="192" height="37" viewBox="0 0 192 37" fill="none" xmlns="http://www.w3.org/2000/svg">
<path d="M47.04 25.1162C46.9067 25.1162 46.7933 25.0695 46.7 24.9762C46.6067 24.8829 46.56 24.7695 46.56 24.6362V11.6162C46.56 11.4695 46.6 11.3495 46.68 11.2562C46.7733 11.1629 46.8933 11.1162 47.04 11.1162H55.72C55.8667 11.1162 55.9867 11.1629 56.08 11.2562C56.1733 11.3495 56.22 11.4695 56.22 11.6162V13.0162C56.22 13.1629 56.1733 13.2829 56.08 13.3762C55.9867 13.4562 55.8667 13.4962 55.72 13.4962H49.3V17.2962H55.32C55.4667 17.2962 55.5867 17.3429 55.68 17.4362C55.7733 17.5295 55.82 17.6495 55.82 17.7962V19.1962C55.82 19.3429 55.7733 19.4629 55.68 19.5562C55.5867 19.6362 55.4667 19.6762 55.32 19.6762H49.3V24.6362C49.3 24.7829 49.2533 24.9029 49.16 24.9962C49.0667 25.0762 48.9467 25.1162 48.8 25.1162H47.04ZM62.0355 25.3162C60.8088 25.3162 59.8421 24.9162 59.1355 24.1162C58.4288 23.3029 58.0755 22.2029 58.0755 20.8162V15.1962C58.0755 15.0629 58.1221 14.9495 58.2155 14.8562C58.3088 14.7629 58.4221 14.7162 58.5555 14.7162H60.3155C60.4621 14.7162 60.5755 14.7629 60.6555 14.8562C60.7488 14.9362 60.7955 15.0495 60.7955 15.1962V20.6962C60.7955 22.3495 61.5221 23.1762 62.9755 23.1762C63.6688 23.1762 64.2155 22.9562 64.6155 22.5162C65.0288 22.0762 65.2355 21.4695 65.2355 20.6962V15.1962C65.2355 15.0629 65.2821 14.9495 65.3755 14.8562C65.4688 14.7629 65.5821 14.7162 65.7155 14.7162H67.4755C67.6221 14.7162 67.7355 14.7629 67.8155 14.8562C67.9088 14.9362 67.9555 15.0495 67.9555 15.1962V24.6362C67.9555 24.7695 67.9088 24.8829 67.8155 24.9762C67.7355 25.0695 67.6221 25.1162 67.4755 25.1162H65.8555C65.7221 25.1162 65.6088 25.0695 65.5155 24.9762C65.4221 24.8829 65.3755 24.7695 65.3755 24.6362V23.8162C64.6288 24.8162 63.5155 25.3162 62.0355 25.3162ZM75.2973 25.1162C74.084 25.1162 73.1707 24.8029 72.5573 24.1762C71.9573 23.5362 71.6573 22.6029 71.6573 21.3762V16.8362H70.0773C69.944 16.8362 69.8307 16.7895 69.7373 16.6962C69.644 16.5895 69.5973 16.4695 69.5973 16.3362V15.1962C69.5973 15.0629 69.644 14.9495 69.7373 14.8562C69.8307 14.7629 69.944 14.7162 70.0773 14.7162H71.6573V11.3962C71.6573 11.2495 71.704 11.1362 71.7973 11.0562C71.8907 10.9629 72.004 10.9162 72.1373 10.9162H73.7573C73.904 10.9162 74.0173 10.9629 74.0973 11.0562C74.1907 11.1362 74.2373 11.2495 74.2373 11.3962V14.7162H76.7373C76.884 14.7162 76.9973 14.7629 77.0773 14.8562C77.1707 14.9362 77.2173 15.0495 77.2173 15.1962V16.3362C77.2173 16.4829 77.1707 16.6029 77.0773 16.6962C76.984 16.7895 76.8707 16.8362 76.7373 16.8362H74.2373V21.1762C74.2373 21.7495 74.3373 22.1829 74.5373 22.4762C74.7373 22.7695 75.0707 22.9162 75.5373 22.9162H76.9173C77.0507 22.9162 77.164 22.9629 77.2573 23.0562C77.3507 23.1495 77.3973 23.2629 77.3973 23.3962V24.6362C77.3973 24.7695 77.3507 24.8829 77.2573 24.9762C77.1773 25.0695 77.064 25.1162 76.9173 25.1162H75.2973ZM83.0316 25.3162C81.8049 25.3162 80.8382 24.9162 80.1316 24.1162C79.4249 23.3029 79.0716 22.2029 79.0716 20.8162V15.1962C79.0716 15.0629 79.1182 14.9495 79.2116 14.8562C79.3049 14.7629 79.4182 14.7162 79.5516 14.7162H81.3116C81.4582 14.7162 81.5716 14.7629 81.6516 14.8562C81.7449 14.9362 81.7916 15.0495 81.7916 15.1962V20.6962C81.7916 22.3495 82.5182 23.1762 83.9716 23.1762C84.6649 23.1762 85.2116 22.9562 85.6116 22.5162C86.0249 22.0762 86.2316 21.4695 86.2316 20.6962V15.1962C86.2316 15.0629 86.2782 14.9495 86.3716 14.8562C86.4649 14.7629 86.5782 14.7162 86.7116 14.7162H88.4716C88.6182 14.7162 88.7316 14.7629 88.8116 14.8562C88.9049 14.9362 88.9516 15.0495 88.9516 15.1962V24.6362C88.9516 24.7695 88.9049 24.8829 88.8116 24.9762C88.7316 25.0695 88.6182 25.1162 88.4716 25.1162H86.8516C86.7182 25.1162 86.6049 25.0695 86.5116 24.9762C86.4182 24.8829 86.3716 24.7695 86.3716 24.6362V23.8162C85.6249 24.8162 84.5116 25.3162 83.0316 25.3162ZM92.0734 25.1162C91.9401 25.1162 91.8268 25.0695 91.7334 24.9762C91.6401 24.8829 91.5934 24.7695 91.5934 24.6362V15.2162C91.5934 15.0829 91.6401 14.9695 91.7334 14.8762C91.8268 14.7695 91.9401 14.7162 92.0734 14.7162H93.6934C93.8401 14.7162 93.9601 14.7629 94.0534 14.8562C94.1468 14.9495 94.1934 15.0695 94.1934 15.2162V16.0362C94.5134 15.6095 94.9134 15.2829 95.3934 15.0562C95.8868 14.8295 96.4468 14.7162 97.0734 14.7162H97.8934C98.0401 14.7162 98.1534 14.7629 98.2334 14.8562C98.3268 14.9362 98.3734 15.0495 98.3734 15.1962V16.6362C98.3734 16.7695 98.3268 16.8829 98.2334 16.9762C98.1534 17.0695 98.0401 17.1162 97.8934 17.1162H96.3334C95.7068 17.1162 95.2134 17.2962 94.8534 17.6562C94.4934 18.0162 94.3134 18.5095 94.3134 19.1362V24.6362C94.3134 24.7695 94.2668 24.8829 94.1734 24.9762C94.0801 25.0695 93.9601 25.1162 93.8134 25.1162H92.0734ZM104.277 25.3162C102.797 25.3162 101.617 24.8895 100.737 24.0362C99.8699 23.1695 99.4099 21.9562 99.3566 20.3962L99.3366 19.8962L99.3566 19.3962C99.4232 17.8762 99.8899 16.6829 100.757 15.8162C101.637 14.9495 102.81 14.5162 104.277 14.5162C105.85 14.5162 107.063 14.9962 107.917 15.9562C108.783 16.9162 109.217 18.1962 109.217 19.7962V20.2162C109.217 20.3495 109.17 20.4629 109.077 20.5562C108.983 20.6495 108.863 20.6962 108.717 20.6962H102.077V20.8562C102.103 21.5895 102.303 22.2095 102.677 22.7162C103.063 23.2095 103.59 23.4562 104.257 23.4562C105.043 23.4562 105.677 23.1495 106.157 22.5362C106.277 22.3895 106.37 22.2962 106.437 22.2562C106.517 22.2162 106.63 22.1962 106.777 22.1962H108.497C108.617 22.1962 108.717 22.2362 108.797 22.3162C108.89 22.3829 108.937 22.4695 108.937 22.5762C108.937 22.8962 108.743 23.2762 108.357 23.7162C107.983 24.1429 107.443 24.5162 106.737 24.8362C106.03 25.1562 105.21 25.3162 104.277 25.3162ZM106.497 19.0162V18.9562C106.497 18.1695 106.297 17.5362 105.897 17.0562C105.51 16.5762 104.97 16.3362 104.277 16.3362C103.583 16.3362 103.043 16.5762 102.657 17.0562C102.27 17.5362 102.077 18.1695 102.077 18.9562V19.0162H106.497ZM117.16 25.3162C115.253 25.3162 113.76 24.8562 112.68 23.9362C111.613 23.0029 111.046 21.6562 110.98 19.8962C110.966 19.5362 110.96 18.9495 110.96 18.1362C110.96 17.3095 110.966 16.7095 110.98 16.3362C111.046 14.6029 111.626 13.2695 112.72 12.3362C113.813 11.3895 115.293 10.9162 117.16 10.9162C118.333 10.9162 119.386 11.1162 120.32 11.5162C121.253 11.9029 121.986 12.4629 122.52 13.1962C123.066 13.9162 123.346 14.7629 123.36 15.7362V15.7762C123.36 15.8829 123.313 15.9762 123.22 16.0562C123.14 16.1229 123.046 16.1562 122.94 16.1562H120.24C120.066 16.1562 119.933 16.1229 119.84 16.0562C119.746 15.9762 119.666 15.8362 119.6 15.6362C119.413 14.9562 119.12 14.4829 118.72 14.2162C118.32 13.9362 117.793 13.7962 117.14 13.7962C115.566 13.7962 114.753 14.6762 114.7 16.4362C114.686 16.7962 114.68 17.3495 114.68 18.0962C114.68 18.8429 114.686 19.4095 114.7 19.7962C114.753 21.5562 115.566 22.4362 117.14 22.4362C117.793 22.4362 118.326 22.2962 118.74 22.0162C119.153 21.7229 119.44 21.2495 119.6 20.5962C119.653 20.3962 119.726 20.2629 119.82 20.1962C119.913 20.1162 120.053 20.0762 120.24 20.0762H122.94C123.06 20.0762 123.16 20.1162 123.24 20.1962C123.333 20.2762 123.373 20.3762 123.36 20.4962C123.346 21.4695 123.066 22.3229 122.52 23.0562C121.986 23.7762 121.253 24.3362 120.32 24.7362C119.386 25.1229 118.333 25.3162 117.16 25.3162ZM124.487 25.1162C124.38 25.1162 124.28 25.0762 124.187 24.9962C124.107 24.9029 124.067 24.8029 124.067 24.6962C124.067 24.6162 124.073 24.5562 124.087 24.5162L128.787 11.6762C128.827 11.5162 128.913 11.3829 129.047 11.2762C129.18 11.1695 129.353 11.1162 129.567 11.1162H132.527C132.74 11.1162 132.913 11.1695 133.047 11.2762C133.18 11.3829 133.267 11.5162 133.307 11.6762L137.987 24.5162L138.027 24.6962C138.027 24.8029 137.98 24.9029 137.887 24.9962C137.807 25.0762 137.707 25.1162 137.587 25.1162H135.127C134.807 25.1162 134.593 24.9762 134.487 24.6962L133.707 22.6562H128.367L127.607 24.6962C127.5 24.9762 127.28 25.1162 126.947 25.1162H124.487ZM132.907 19.7762L131.047 14.4962L129.187 19.7762H132.907ZM140.103 25.1162C139.97 25.1162 139.85 25.0695 139.743 24.9762C139.65 24.8695 139.603 24.7495 139.603 24.6162V11.6162C139.603 11.4695 139.65 11.3495 139.743 11.2562C139.85 11.1629 139.97 11.1162 140.103 11.1162H145.543C147.29 11.1162 148.65 11.5162 149.623 12.3162C150.61 13.1029 151.103 14.2229 151.103 15.6762C151.103 16.6095 150.883 17.4029 150.443 18.0562C150.003 18.7095 149.396 19.2095 148.623 19.5562L151.363 24.4762C151.403 24.5562 151.423 24.6295 151.423 24.6962C151.423 24.8029 151.376 24.9029 151.283 24.9962C151.203 25.0762 151.11 25.1162 151.003 25.1162H148.343C147.956 25.1162 147.683 24.9362 147.523 24.5762L145.243 20.1762H143.203V24.6162C143.203 24.7629 143.15 24.8829 143.043 24.9762C142.95 25.0695 142.83 25.1162 142.683 25.1162H140.103ZM145.503 17.3362C146.116 17.3362 146.583 17.1895 146.903 16.8962C147.223 16.5895 147.383 16.1695 147.383 15.6362C147.383 15.1029 147.223 14.6829 146.903 14.3762C146.596 14.0562 146.13 13.8962 145.503 13.8962H143.203V17.3362H145.503ZM153.931 25.1162C153.798 25.1162 153.678 25.0695 153.571 24.9762C153.478 24.8695 153.431 24.7495 153.431 24.6162V11.6162C153.431 11.4695 153.478 11.3495 153.571 11.2562C153.678 11.1629 153.798 11.1162 153.931 11.1162H163.271C163.418 11.1162 163.538 11.1629 163.631 11.2562C163.725 11.3495 163.771 11.4695 163.771 11.6162V13.4962C163.771 13.6295 163.725 13.7495 163.631 13.8562C163.538 13.9495 163.418 13.9962 163.271 13.9962H156.891V16.6962H162.831C162.978 16.6962 163.098 16.7495 163.191 16.8562C163.285 16.9495 163.331 17.0695 163.331 17.2162V18.9562C163.331 19.0895 163.285 19.2095 163.191 19.3162C163.098 19.4095 162.978 19.4562 162.831 19.4562H156.891V22.2362H163.431C163.578 22.2362 163.698 22.2829 163.791 22.3762C163.885 22.4695 163.931 22.5895 163.931 22.7362V24.6162C163.931 24.7495 163.885 24.8695 163.791 24.9762C163.698 25.0695 163.578 25.1162 163.431 25.1162H153.931ZM166.705 25.1162C166.571 25.1162 166.451 25.0695 166.345 24.9762C166.251 24.8695 166.205 24.7495 166.205 24.6162V11.6162C166.205 11.4695 166.251 11.3495 166.345 11.2562C166.451 11.1629 166.571 11.1162 166.705 11.1162H176.045C176.191 11.1162 176.311 11.1629 176.405 11.2562C176.498 11.3495 176.545 11.4695 176.545 11.6162V13.4962C176.545 13.6295 176.498 13.7495 176.405 13.8562C176.311 13.9495 176.191 13.9962 176.045 13.9962H169.665V16.6962H175.605C175.751 16.6962 175.871 16.7495 175.965 16.8562C176.058 16.9495 176.105 17.0695 176.105 17.2162V18.9562C176.105 19.0895 176.058 19.2095 175.965 19.3162C175.871 19.4095 175.751 19.4562 175.605 19.4562H169.665V22.2362H176.205C176.351 22.2362 176.471 22.2829 176.565 22.3762C176.658 22.4695 176.705 22.5895 176.705 22.7362V24.6162C176.705 24.7495 176.658 24.8695 176.565 24.9762C176.471 25.0695 176.351 25.1162 176.205 25.1162H166.705ZM179.478 25.1162C179.345 25.1162 179.225 25.0695 179.118 24.9762C179.025 24.8695 178.978 24.7495 178.978 24.6162V11.6162C178.978 11.4695 179.025 11.3495 179.118 11.2562C179.225 11.1629 179.345 11.1162 179.478 11.1162H184.918C186.665 11.1162 188.025 11.5162 188.998 12.3162C189.985 13.1029 190.478 14.2229 190.478 15.6762C190.478 16.6095 190.258 17.4029 189.818 18.0562C189.378 18.7095 188.771 19.2095 187.998 19.5562L190.738 24.4762C190.778 24.5562 190.798 24.6295 190.798 24.6962C190.798 24.8029 190.751 24.9029 190.658 24.9962C190.578 25.0762 190.485 25.1162 190.378 25.1162H187.718C187.331 25.1162 187.058 24.9362 186.898 24.5762L184.618 20.1762H182.578V24.6162C182.578 24.7629 182.525 24.8829 182.418 24.9762C182.325 25.0695 182.205 25.1162 182.058 25.1162H179.478ZM184.878 17.3362C185.491 17.3362 185.958 17.1895 186.278 16.8962C186.598 16.5895 186.758 16.1695 186.758 15.6362C186.758 15.1029 186.598 14.6829 186.278 14.3762C185.971 14.0562 185.505 13.8962 184.878 13.8962H182.578V17.3362H184.878Z" fill="#0B132A"/>
<path d="M31.1473 13.6477L31.1255 13.626C31.1238 13.6247 31.1224 13.6231 31.1215 13.6212L17.5006 0L3.87983 13.6209C3.87826 13.6225 3.8758 13.6256 3.8758 13.6256L3.85333 13.6474C1.77053 15.7419 0.447586 18.4725 0.0948177 21.4052C-0.25795 24.3379 0.379698 27.3044 1.90639 29.8331C3.43309 32.3619 5.76122 34.3077 8.52069 35.3612C11.2802 36.4147 14.3126 36.5157 17.136 35.6477C17.3735 35.5751 17.6275 35.5751 17.8651 35.6477C20.6882 36.5153 23.7205 36.4144 26.4798 35.3607C29.2391 34.307 31.567 32.3613 33.0936 29.8328C34.6202 27.3042 35.2579 24.3379 34.9053 21.4054C34.5526 18.4728 33.2299 15.7422 31.1473 13.6477ZM8.7232 22.6298C8.65689 22.6961 8.6043 22.7749 8.56844 22.8615C8.53257 22.948 8.5141 23.0408 8.51412 23.1346C8.53835 25.5386 9.21776 27.8904 10.4792 29.9371C10.5079 29.9835 10.5211 30.0379 10.517 30.0922C10.513 30.1465 10.4918 30.1982 10.4566 30.2399C10.4213 30.2816 10.3738 30.311 10.3209 30.324C10.2679 30.337 10.2122 30.333 10.1616 30.3124C9.21332 29.9135 8.35182 29.3336 7.62531 28.6053C6.13646 27.1162 5.29946 25.097 5.2981 22.9912C5.29675 20.8855 6.13117 18.8652 7.61812 17.3743L17.5006 7.49273L27.3826 17.3743C28.8698 18.865 29.7045 20.8853 29.703 22.9912C29.7018 25.097 28.8647 27.1162 27.3757 28.6053C26.6492 29.3336 25.7877 29.9135 24.8396 30.3124C24.7889 30.333 24.7332 30.337 24.6802 30.324C24.6273 30.311 24.5798 30.2814 24.5445 30.2399C24.5093 30.1982 24.488 30.1465 24.484 30.092C24.4799 30.0377 24.4931 29.9833 24.5218 29.9369C25.7835 27.8904 26.4633 25.5386 26.4879 23.1346C26.4879 23.0408 26.4692 22.948 26.4332 22.8613C26.3971 22.7746 26.3444 22.696 26.2779 22.6296L21.6037 17.6717C21.5571 17.6329 21.4985 17.6116 21.4378 17.6116C21.3773 17.6116 21.3186 17.6329 21.2721 17.6717C21.2255 17.7104 21.1942 17.7644 21.1833 17.824C21.1724 17.8837 21.1828 17.945 21.2127 17.9978C23.0281 21.283 21.467 26.0017 18.8637 28.6053L18.85 28.6191C18.4907 28.9745 18.0056 29.1738 17.5002 29.1736C16.9948 29.1734 16.5098 28.9738 16.1508 28.6182L16.1382 28.6053C13.5339 26.0017 11.9736 21.2835 13.7893 17.9985C13.8192 17.9457 13.8296 17.8844 13.8187 17.8247C13.8079 17.7651 13.7764 17.7111 13.7299 17.6724C13.6834 17.6336 13.6247 17.6123 13.5642 17.6123C13.5036 17.6123 13.4449 17.6336 13.3984 17.6724L8.7232 22.6298Z" fill="#0981EF"/>
</svg>
