<svg viewBox="0 0 612 341" fill="none" xmlns="http://www.w3.org/2000/svg">
<g clip-path="url(#clip0)">
<path opacity="0.1" d="M611.24 222.435C611.273 240.118 606.445 257.47 597.284 272.595C597.284 291.092 588.66 307.859 574.672 320.078C571.171 323.132 567.401 325.865 563.409 328.242C563.249 328.344 563.083 328.44 562.918 328.536C562.619 328.712 562.319 328.889 562.015 329.07L561.732 329.236C560.455 329.957 559.151 330.652 557.821 331.304C545.561 337.332 532.072 340.441 518.411 340.387H116.034C112.828 340.387 109.651 340.259 106.502 340.002C95.3121 339.121 84.3162 336.575 73.8777 332.447C71.8403 331.642 69.842 330.777 67.8829 329.851C66.9496 329.412 66.0253 328.962 65.1099 328.499C64.5382 328.21 63.9665 327.911 63.4001 327.612C59.9637 325.784 56.6348 323.761 53.4301 321.553C50.5012 319.548 47.6831 317.387 44.9881 315.077C26.8059 299.476 15.5588 277.884 15.5588 254.06C5.36736 238.367 -0.0385722 220.047 -6.80621e-06 201.335C-6.80621e-06 148.365 42.338 105.423 94.5712 105.423C96.1741 105.423 97.777 105.471 99.3799 105.556C99.6097 105.556 99.8341 105.556 100.064 105.589C108.869 90.58 120.64 76.7897 134.793 64.6504C173.391 31.5772 229.803 10.7288 292.642 10.7288C345.441 10.7288 393.705 25.4487 430.673 49.7701C444.682 41.8512 460.504 37.6999 476.596 37.7216C528.819 37.7216 571.167 80.6634 571.167 133.634C571.16 136.986 570.981 140.335 570.633 143.668C583.221 152.579 593.482 164.387 600.549 178.096C607.617 191.804 611.283 207.012 611.24 222.435Z" fill="#0981EF"/>
<path opacity="0.1" d="M486.582 146.382V140.649C491.066 138.829 494.778 135.506 497.082 131.25C499.386 126.994 500.139 122.069 499.211 117.319C498.284 112.569 495.734 108.289 491.998 105.212C488.262 102.135 483.573 100.453 478.733 100.453C473.894 100.453 469.205 102.135 465.469 105.212C461.733 108.289 459.183 112.569 458.256 117.319C457.328 122.069 458.081 126.994 460.385 131.25C462.689 135.506 466.4 138.829 470.885 140.649V146.382C465.657 147.835 460.934 150.707 457.238 154.68C453.325 148.808 447.431 144.538 440.632 142.648V136.909C445.117 135.089 448.828 131.766 451.132 127.51C453.436 123.253 454.189 118.329 453.261 113.579C452.334 108.829 449.784 104.549 446.048 101.472C442.312 98.3953 437.623 96.7129 432.784 96.7129C427.944 96.7129 423.255 98.3953 419.519 101.472C415.783 104.549 413.233 108.829 412.306 113.579C411.378 118.329 412.131 123.253 414.435 127.51C416.739 131.766 420.45 135.089 424.935 136.909V142.642C420.286 143.933 416.027 146.347 412.534 149.674C408.635 144.44 403.107 140.651 396.82 138.902V133.169C401.304 131.348 405.016 128.026 407.32 123.769C409.623 119.513 410.376 114.589 409.449 109.839C408.521 105.089 405.971 100.809 402.235 97.732C398.5 94.6552 393.811 92.9728 388.971 92.9728C384.131 92.9728 379.442 94.6552 375.706 97.732C371.971 100.809 369.421 105.089 368.493 109.839C367.566 114.589 368.318 119.513 370.622 123.769C372.926 128.026 376.638 131.348 381.122 133.169V138.902C375.774 140.393 370.957 143.368 367.23 147.483C365.569 143.223 362.938 139.409 359.547 136.343C356.155 133.277 352.096 131.043 347.691 129.819V124.086C352.175 122.265 355.887 118.942 358.191 114.686C360.494 110.43 361.247 105.506 360.32 100.756C359.392 96.0056 356.842 91.7258 353.106 88.6489C349.371 85.5721 344.682 83.8896 339.842 83.8896C335.002 83.8896 330.313 85.5721 326.577 88.6489C322.842 91.7258 320.292 96.0056 319.364 100.756C318.437 105.506 319.189 110.43 321.493 114.686C323.797 118.942 327.509 122.265 331.993 124.086V129.819C326.268 131.413 321.16 134.706 317.344 139.263C313.529 143.819 311.185 149.426 310.621 155.343C307.924 153.471 304.931 152.067 301.768 151.191V145.458C306.252 143.637 309.964 140.314 312.268 136.058C314.571 131.802 315.324 126.878 314.396 122.128C313.469 117.378 310.919 113.098 307.183 110.021C303.448 106.944 298.758 105.262 293.919 105.262C289.079 105.262 284.39 106.944 280.654 110.021C276.919 113.098 274.369 117.378 273.441 122.128C272.514 126.878 273.266 131.802 275.57 136.058C277.874 140.314 281.586 143.637 286.07 145.458V151.191C282.079 152.302 278.367 154.242 275.176 156.885C271.985 159.527 269.387 162.812 267.551 166.525C265.075 164.935 262.373 163.728 259.537 162.946V157.213C264.021 155.392 267.733 152.069 270.036 147.813C272.34 143.557 273.093 138.632 272.165 133.882C271.238 129.132 268.688 124.852 264.952 121.776C261.217 118.699 256.527 117.016 251.688 117.016C246.848 117.016 242.159 118.699 238.423 121.776C234.687 124.852 232.137 129.132 231.21 133.882C230.282 138.632 231.035 143.557 233.339 147.813C235.643 152.069 239.355 155.392 243.839 157.213V162.946C241.162 163.684 238.605 164.803 236.246 166.269C234.398 162.616 231.808 159.389 228.642 156.793C225.477 154.197 221.805 152.289 217.861 151.191V145.458C222.345 143.637 226.057 140.314 228.361 136.058C230.665 131.802 231.417 126.878 230.49 122.128C229.562 117.378 227.013 113.098 223.277 110.021C219.541 106.944 214.852 105.262 210.012 105.262C205.173 105.262 200.483 106.944 196.748 110.021C193.012 113.098 190.462 117.378 189.535 122.128C188.607 126.878 189.36 131.802 191.664 136.058C193.967 140.314 197.679 143.637 202.163 145.458V151.191C197.919 152.372 193.993 154.49 190.676 157.39C187.359 160.29 184.735 163.898 182.998 167.947C180.01 165.653 176.609 163.955 172.98 162.946V157.213C177.464 155.392 181.176 152.069 183.48 147.813C185.784 143.557 186.536 138.632 185.609 133.882C184.681 129.132 182.131 124.852 178.396 121.776C174.66 118.699 169.971 117.016 165.131 117.016C160.291 117.016 155.602 118.699 151.866 121.776C148.131 124.852 145.581 129.132 144.653 133.882C143.726 138.632 144.478 143.557 146.782 147.813C149.086 152.069 152.798 155.392 157.282 157.213V162.946C151.09 164.662 145.631 168.36 141.741 173.475C137.851 178.589 135.745 184.838 135.744 191.264V323.77H194.485V312.016H222.269V323.77H281.042V312.016H323.252V290.643H359.584V299.727H403.397V303.467H449.347V307.207H508.12V174.7C508.12 168.275 506.013 162.026 502.123 156.912C498.234 151.797 492.774 148.099 486.582 146.382Z" fill="#0981EF"/>
<path d="M262.224 90.2969H311.075C323.023 90.2962 334.855 92.6489 345.894 97.2208C356.933 101.793 366.963 108.494 375.412 116.943C383.861 125.391 390.563 135.421 395.135 146.46C399.708 157.498 402.061 169.329 402.061 181.278V304.551H171.243V181.278C171.243 157.148 180.829 134.007 197.891 116.945C214.953 99.8823 238.094 90.2969 262.224 90.2969Z" fill="#2F2E41"/>
<path opacity="0.2" d="M267.567 95.2551H305.732C317.68 95.2544 329.512 97.6072 340.551 102.179C351.59 106.751 361.62 113.452 370.069 121.901C378.518 130.349 385.22 140.379 389.792 151.418C394.365 162.456 396.718 174.288 396.718 186.236V299.588H176.586V186.236C176.586 162.106 186.172 138.965 203.234 121.903C220.296 104.841 243.438 95.2551 267.567 95.2551Z" fill="black"/>
<path d="M557.81 321.964V331.293C545.55 337.321 532.062 340.43 518.4 340.376H116.034C112.828 340.376 109.651 340.248 106.502 339.991C95.3121 339.11 84.3162 336.564 73.8778 332.436C71.8403 331.631 69.842 330.766 67.8829 329.84C66.9497 329.402 66.0253 328.951 65.1099 328.488C64.5382 328.199 63.9665 327.9 63.4001 327.601C59.9639 325.777 56.6351 323.758 53.4301 321.553V296.216C53.4301 292.121 55.0569 288.193 57.9527 285.298C60.8485 282.402 64.7761 280.775 68.8714 280.775H512.998C516.734 280.782 520.341 282.143 523.15 284.606L552.536 310.359C554.192 311.806 555.519 313.59 556.428 315.591C557.338 317.593 557.809 319.766 557.81 321.964Z" fill="#2F2E41"/>
<path d="M257.891 120.65C246.24 121.42 234.633 122.666 223.071 124.39C219.785 124.882 216.451 125.427 213.453 126.88C211.124 128.1 208.977 129.64 207.074 131.454C198.491 139.143 191.58 148.515 186.77 158.986C183.794 165.478 181.657 172.344 178.852 178.889C168.866 202.265 150.753 221.382 140.211 244.512C137.93 249.518 136.006 254.744 135.242 260.188C134.451 265.82 135.349 272.392 139.976 275.683C142.113 277.195 144.71 277.82 147.253 278.355C179.269 285.445 211.658 290.734 244.266 294.197C240.735 290.788 239.554 285.503 240.019 280.62C240.483 275.736 242.402 271.12 244.293 266.595C225.838 262.523 207.43 258.249 189.068 253.771C186.327 253.103 183.035 251.848 182.699 249.048C182.528 247.622 183.233 246.248 183.928 244.993C191.759 230.812 201.15 217.55 211.925 205.455C211.925 220.447 211.182 237.379 211.182 252.377H384.349C382.267 243.82 381.042 235.076 380.695 226.276C379.888 197.552 389.559 169.047 387.047 140.382C386.812 137.737 386.449 135.012 385.065 132.747C382.677 128.836 377.911 127.217 373.53 125.881C356.731 120.773 339.58 115.607 322.023 116.007C316.803 116.13 311.604 116.739 306.416 117.354C290.606 119.218 273.776 119.598 257.891 120.65Z" fill="#0981EF"/>
<path d="M176.789 292.968L189.399 333.323C189.48 333.579 189.64 333.802 189.856 333.961C190.072 334.119 190.333 334.205 190.601 334.205H244.71L231.886 287.187L177.89 291.338C177.702 291.354 177.52 291.411 177.357 291.507C177.194 291.602 177.055 291.733 176.949 291.889C176.843 292.045 176.774 292.223 176.747 292.41C176.719 292.597 176.734 292.787 176.789 292.968Z" fill="#656478"/>
<path d="M269.288 138.004C266.937 139.356 264.196 139.842 261.524 140.307L244.282 143.299C240.927 143.882 237.395 144.544 234.809 146.762C229.52 151.287 230.663 159.617 232.266 166.392L235.472 179.984C237.887 190.2 240.355 200.539 245.308 209.793C253.958 225.945 269.827 237.577 287.277 243.182C293.513 245.185 300.101 246.489 306.608 245.773C319.357 244.373 330.262 235.285 336.983 224.358C343.705 213.432 346.905 200.758 349.839 188.266C352.654 176.308 355.331 164.18 355.15 151.891C355.096 148.065 354.711 144.069 352.67 140.826C348.198 133.703 338.063 133.169 329.754 134.483C328.461 134.692 327.12 134.916 325.875 134.526C322.135 133.361 322.05 128.227 320.447 124.663C317.417 117.941 308.43 116.75 301.084 117.359C293.737 117.968 282.298 118.754 275.897 122.916C269.742 126.896 276.506 133.842 269.288 138.004Z" fill="#FBBEBE"/>
<path opacity="0.1" d="M269.288 138.004C266.937 139.356 264.196 139.842 261.524 140.307L244.282 143.299C240.927 143.882 237.395 144.544 234.809 146.762C229.52 151.287 230.663 159.617 232.266 166.392L235.472 179.984C237.887 190.2 240.355 200.539 245.308 209.793C253.958 225.945 269.827 237.577 287.277 243.182C293.513 245.185 300.101 246.489 306.608 245.773C319.357 244.373 330.262 235.285 336.983 224.358C343.705 213.432 346.905 200.758 349.839 188.266C352.654 176.308 355.331 164.18 355.15 151.891C355.096 148.065 354.711 144.069 352.67 140.826C348.198 133.703 338.063 133.169 329.754 134.483C328.461 134.692 327.12 134.916 325.875 134.526C322.135 133.361 322.05 128.227 320.447 124.663C317.417 117.941 308.43 116.75 301.084 117.359C293.737 117.968 282.298 118.754 275.897 122.916C269.742 126.896 276.506 133.842 269.288 138.004Z" fill="black"/>
<path d="M255.016 153.317C257.624 158.789 259.579 164.591 262.732 169.769C265.238 173.883 268.449 177.511 271.644 181.117C279.92 190.478 288.303 199.914 298.546 207.041C302.787 185.251 313.034 165.079 328.13 148.803C332.543 144.063 338.068 139.394 344.544 139.57C348.562 139.682 352.27 141.675 355.615 143.892C359.355 146.366 362.892 149.235 365.579 152.799C369.827 158.473 371.66 165.66 371.991 172.739C372.322 179.819 371.221 186.882 370.131 193.882L364.521 230.059C364.195 232.154 363.741 234.467 362.031 235.723C361.06 236.338 359.966 236.732 358.826 236.877C338.431 240.847 317.412 238.271 296.633 238.068C273.658 237.849 250.047 240.467 228.285 233.158C227.147 232.773 225.966 232.33 225.197 231.416C224.692 230.727 224.328 229.944 224.128 229.113C219.058 212.7 223.124 195.062 226.132 178.152C228.514 164.751 230.21 151.237 231.213 137.662C231.304 136.439 244.747 139.142 246.249 140.008C250.336 142.428 253.05 149.193 255.016 153.317Z" fill="#0981EF"/>
<g opacity="0.2">
<path opacity="0.2" d="M89.1587 286.807C89.1587 287.053 89.132 287.294 89.1053 287.529C87.0678 286.724 85.0696 285.858 83.1105 284.932C82.0639 284.794 81.0905 284.32 80.3374 283.58C79.7657 283.292 79.194 282.993 78.6277 282.693C78.7559 282.425 78.9005 282.164 79.0605 281.913C80.1611 280.171 81.8335 279.081 83.6768 279.14C85.5202 279.199 87.1177 280.39 88.1062 282.191C88.8621 283.609 89.2255 285.202 89.1587 286.807Z" fill="#3F3D56"/>
<path opacity="0.2" d="M89.4473 277.66C89.4108 279.263 88.9479 280.827 88.1062 282.191C87.0055 283.927 85.3332 285.017 83.4898 284.958L83.1105 284.932C82.0639 284.794 81.0905 284.32 80.3374 283.58C79.8267 283.095 79.3958 282.532 79.0605 281.913C78.3231 280.491 77.9625 278.903 78.013 277.302C78.0635 275.7 78.5235 274.139 79.349 272.766C80.4496 271.024 82.122 269.934 83.9653 269.993C85.8087 270.052 87.4062 271.243 88.3947 273.044C89.1507 274.461 89.5141 276.055 89.4473 277.66Z" fill="#3F3D56"/>
<path opacity="0.2" d="M89.7356 268.527C89.8662 264.395 87.4137 260.964 84.2579 260.864C81.102 260.764 78.4378 264.033 78.3073 268.165C78.1767 272.298 80.6292 275.728 83.785 275.828C86.9408 275.928 89.605 272.659 89.7356 268.527Z" fill="#3F3D56"/>
<path opacity="0.2" d="M90.0271 259.379C90.1577 255.247 87.7052 251.817 84.5494 251.717C81.3936 251.617 78.7294 254.886 78.5988 259.018C78.4682 263.15 80.9207 266.581 84.0765 266.681C87.2324 266.78 89.8965 263.511 90.0271 259.379Z" fill="#3F3D56"/>
<path opacity="0.2" d="M90.3133 250.232C90.4439 246.1 87.9914 242.669 84.8355 242.569C81.6797 242.47 79.0156 245.739 78.885 249.871C78.7544 254.003 81.2068 257.433 84.3627 257.533C87.5185 257.633 90.1827 254.364 90.3133 250.232Z" fill="#3F3D56"/>
<path opacity="0.2" d="M65.185 186.765C64.4325 185.746 63.754 184.675 63.1546 183.559L78.254 181.566L61.9792 181.181C60.5287 177.741 59.7953 174.041 59.8238 170.307C59.8523 166.574 60.642 162.885 62.1448 159.467L83.5809 171.457L63.9454 156.048C65.9262 152.844 68.5463 150.083 71.6421 147.938C74.7379 145.792 78.2428 144.308 81.938 143.577C85.6332 142.847 89.4393 142.887 93.1185 143.694C96.7978 144.5 100.271 146.057 103.322 148.267C106.372 150.476 108.934 153.291 110.848 156.535C112.762 159.779 113.987 163.383 114.445 167.122C114.903 170.86 114.586 174.653 113.513 178.264C112.439 181.874 110.633 185.225 108.207 188.106C109.376 189.691 110.37 191.399 111.172 193.198L91.3657 202.73L112.38 196.409C113.704 200.774 113.918 205.4 113.004 209.869C112.09 214.338 110.075 218.508 107.144 222.002C110.195 226.142 112.02 231.058 112.41 236.186C112.799 241.315 111.737 246.449 109.345 251.002C106.952 255.556 103.327 259.344 98.8831 261.933C94.4391 264.522 89.356 265.809 84.2153 265.645C79.0746 265.48 74.0838 263.873 69.814 261.005C65.5442 258.138 62.1677 254.126 60.0708 249.43C57.9739 244.733 57.2412 239.542 57.9567 234.448C58.6721 229.355 60.8067 224.566 64.1164 220.629C60.4714 215.682 58.5951 209.654 58.7889 203.512C58.9827 197.37 61.2354 191.472 65.185 186.765Z" fill="#0981EF"/>
<path opacity="0.1" d="M113.539 205.236C113.351 211.382 111.091 217.285 107.127 221.986C110.183 226.124 112.013 231.039 112.406 236.169C112.799 241.298 111.74 246.435 109.35 250.99C106.96 255.546 103.336 259.337 98.8919 261.929C94.4482 264.521 89.3645 265.81 84.2226 265.647C79.0807 265.485 74.0884 263.879 69.8169 261.011C65.5455 258.144 62.1675 254.133 60.0696 249.435C57.9716 244.738 57.2385 239.545 57.9542 234.451C58.6698 229.356 60.8052 224.566 64.1161 220.629C60.5737 215.852 113.635 202.163 113.539 205.236Z" fill="black"/>
</g>
<path opacity="0.1" d="M36.3431 86.9896C42.7258 86.9896 47.9001 81.8154 47.9001 75.4327C47.9001 69.0499 42.7258 63.8757 36.3431 63.8757C29.9604 63.8757 24.7862 69.0499 24.7862 75.4327C24.7862 81.8154 29.9604 86.9896 36.3431 86.9896Z" fill="#0981EF"/>
<path opacity="0.1" d="M84.5103 23.1138C90.8931 23.1138 96.0673 17.9396 96.0673 11.5569C96.0673 5.17421 90.8931 0 84.5103 0C78.1276 0 72.9534 5.17421 72.9534 11.5569C72.9534 17.9396 78.1276 23.1138 84.5103 23.1138Z" fill="#0981EF"/>
<path opacity="0.1" d="M80.5939 74.8074C91.2908 74.8074 99.9623 66.1358 99.9623 55.439C99.9623 44.7421 91.2908 36.0706 80.5939 36.0706C69.8971 36.0706 61.2255 44.7421 61.2255 55.439C61.2255 66.1358 69.8971 74.8074 80.5939 74.8074Z" fill="#0981EF"/>
<path d="M290.125 143.994C314.912 143.994 335.007 123.9 335.007 99.1127C335.007 74.3255 314.912 54.2314 290.125 54.2314C265.338 54.2314 245.244 74.3255 245.244 99.1127C245.244 123.9 265.338 143.994 290.125 143.994Z" fill="#FBBEBE"/>
<path d="M271.895 11.0441C259.921 12.5615 246.997 14.5652 238.533 23.1674C233.799 27.9761 231.026 34.3877 228.745 40.7352C225.208 50.6198 222.574 61.0386 223.402 71.5269C224.139 80.9093 227.612 90.5053 224.802 99.4922C223.509 103.628 220.971 107.24 218.999 111.092C215.345 118.246 213.624 126.266 212.994 134.275C212.555 139.784 212.641 145.453 214.452 150.673C216.381 156.23 220.143 160.958 222.526 166.333C226.052 174.273 226.405 183.206 226.677 191.889C226.95 200.571 227.179 209.195 227.382 217.845C227.511 223.284 227.521 229.108 224.513 233.644C235.621 229.194 246.884 224.652 256.39 217.386C265.895 210.119 273.589 199.642 274.818 187.737C275.811 178.088 272.552 168.577 269.742 159.291C262.796 136.316 258.308 111.824 263.362 88.3628C265.184 79.9155 269.613 70.4851 278.114 68.9303C283.302 67.9845 288.48 70.3515 293.155 72.7986C304.204 78.5797 315.595 86.0599 319.709 97.8306C323.45 108.474 320.303 120.33 315.435 130.492C310.568 140.655 303.942 150 300.159 160.622C294.352 176.918 295.987 195.998 305.636 210.354C315.285 224.711 333.115 233.543 350.261 231.224C348.92 225.432 344.715 220.752 342.46 215.248C338.362 205.252 341.124 193.754 345.532 183.89C349.94 174.027 355.956 164.832 358.713 154.36C360.658 146.986 360.893 139.282 360.883 131.657C360.883 119.657 360.29 107.651 359.136 95.704C357.981 83.7571 356.218 71.6605 352.414 60.1677C349.358 50.951 344.907 42.0389 338.25 34.9701C331.165 27.4418 321.943 22.3392 312.886 17.3382C307.469 14.3568 301.933 11.338 295.853 10.2213C291.044 9.33969 285.99 8.08408 281.085 8.00394C277.751 7.95585 274.246 8.67716 271.895 11.0441Z" fill="#434175"/>
<path d="M356.368 68.9723L327.493 63.3701C326.653 63.2071 325.84 63.756 325.677 64.5961L311.843 135.899C311.68 136.739 312.229 137.553 313.069 137.715L341.944 143.318C342.784 143.481 343.597 142.932 343.76 142.092L357.594 70.7885C357.757 69.9484 357.208 69.1353 356.368 68.9723Z" fill="#656478"/>
<path d="M358.551 69.3959L329.676 63.7937C328.836 63.6307 328.023 64.1796 327.86 65.0196L314.025 136.323C313.862 137.163 314.411 137.976 315.251 138.139L344.126 143.741C344.966 143.904 345.779 143.355 345.942 142.515L359.777 71.2121C359.94 70.372 359.391 69.5589 358.551 69.3959Z" fill="#3F3D56"/>
<path d="M343.131 83.1128C343.696 80.2015 343.179 77.6523 341.977 77.419C340.775 77.1858 339.343 79.3568 338.778 82.2681C338.213 85.1795 338.729 87.7286 339.932 87.9619C341.134 88.1951 342.566 86.0241 343.131 83.1128Z" fill="#0981EF"/>
<path d="M349.967 107.394C348.556 104.899 347.05 102.319 344.672 100.721C343.305 99.8827 341.836 99.2236 340.301 98.7601C335.124 96.9488 329.861 95.1215 324.385 94.833C323.492 94.7902 322.472 94.833 321.889 95.5169C320.693 96.9221 322.589 98.8349 324.23 99.6844L337.277 106.443L325.25 105.172C323.503 104.985 321.013 105.46 321.141 107.213C321.227 108.361 322.488 108.987 323.578 109.35C331.298 112.021 340.221 114.116 344.448 121.105C338.816 120.57 333.062 120.036 327.542 121.276C326.03 121.617 324.465 122.146 323.476 123.338C322.488 124.529 322.376 126.544 323.621 127.489C324.39 128.061 325.427 128.077 326.388 128.024C330.305 127.837 334.323 127.057 338.084 128.173C341.846 129.29 345.185 133.233 343.887 136.931C347.221 137.23 351.164 136.931 354.247 135.493C357.645 133.89 357.565 130.877 357.356 127.244C356.913 120.127 353.381 113.485 349.967 107.394Z" fill="#FBBEBE"/>
<path opacity="0.1" d="M346.596 223.867C343.605 202.841 339.503 181.988 334.307 161.396C331.635 150.71 328.6 139.842 329.364 128.847C340.403 130.252 350.293 131.294 360.466 126.784C360.632 132.56 364.821 137.47 366.343 143.054C367.364 146.794 366.979 150.753 367.38 154.605C367.781 158.458 368.983 162.192 370.014 165.938C375.13 184.498 376.337 203.918 373.556 222.969C364.115 224.091 356.015 225.325 346.596 223.867Z" fill="black"/>
<path d="M344.993 223.867C342.003 202.841 337.901 181.988 332.704 161.396C330.032 150.71 326.997 139.842 327.761 128.847C338.8 130.252 348.69 131.294 358.863 126.784C359.029 132.56 363.218 137.47 364.74 143.054C365.761 146.794 365.376 150.753 365.777 154.605C366.178 158.458 367.38 162.192 368.411 165.938C373.528 184.498 374.734 203.918 371.953 222.969C362.512 224.091 354.412 225.325 344.993 223.867Z" fill="#0981EF"/>
<path d="M190.548 327.938L195.778 198.172C195.862 196.11 196.745 194.16 198.241 192.738C199.737 191.316 201.729 190.532 203.793 190.553L410.311 192.53C411.405 192.541 412.485 192.779 413.484 193.227C414.482 193.676 415.376 194.326 416.111 195.137C416.846 195.947 417.406 196.901 417.755 197.939C418.104 198.976 418.234 200.074 418.138 201.164L407.228 325.48C407.057 327.435 406.167 329.257 404.732 330.595C403.296 331.933 401.416 332.692 399.454 332.725L198.621 336.198C197.54 336.216 196.466 336.014 195.466 335.603C194.466 335.192 193.56 334.581 192.804 333.808C192.049 333.034 191.459 332.115 191.071 331.105C190.683 330.096 190.505 329.018 190.548 327.938Z" fill="#3F3D56"/>
<path d="M305.887 260.205C310.904 260.205 314.97 255.42 314.97 249.519C314.97 243.617 310.904 238.833 305.887 238.833C300.871 238.833 296.804 243.617 296.804 249.519C296.804 255.42 300.871 260.205 305.887 260.205Z" fill="#0981EF"/>
<path d="M500.105 242.177L499.678 245.843L492.732 305.075C474.625 317.701 460.54 305.567 460.418 305.075L451.666 245.565L451.169 242.177H500.105Z" fill="#3F3D56"/>
<path opacity="0.1" d="M500.105 242.177L499.678 245.843C479.278 257.704 457.516 248.471 451.666 245.565L451.169 242.177H500.105Z" fill="black"/>
<path d="M450.148 238.961V244.304C450.148 244.304 477.131 259.991 501.441 244.304V238.961H450.148Z" fill="#0981EF"/>
<path d="M453.285 231.903C453.285 231.903 452.499 235.509 450.148 235.824V240.371H501.441V236.295C501.441 236.295 498.305 235.509 498.77 231.903H453.285Z" fill="#0981EF"/>
<path d="M475.64 238.961C488.417 238.961 498.775 235.975 498.775 232.293C498.775 228.61 488.417 225.625 475.64 225.625C462.863 225.625 452.505 228.61 452.505 232.293C452.505 235.975 462.863 238.961 475.64 238.961Z" fill="#0981EF"/>
<path opacity="0.1" d="M475.64 238.961C488.417 238.961 498.775 235.975 498.775 232.293C498.775 228.61 488.417 225.625 475.64 225.625C462.863 225.625 452.505 228.61 452.505 232.293C452.505 235.975 462.863 238.961 475.64 238.961Z" fill="black"/>
<path opacity="0.1" d="M495.949 231.903C495.949 234.574 487.175 236.765 476.345 236.765H475.768C468.496 236.711 462.213 235.696 459.007 234.179C457.559 233.495 456.736 232.72 456.736 231.903C456.736 230.545 458.98 229.316 462.614 228.435C467.128 227.448 471.74 226.98 476.361 227.04C487.175 227.04 495.949 229.215 495.949 231.903Z" fill="black"/>
<path opacity="0.1" d="M475.768 236.765C468.496 236.711 462.213 235.696 459.007 234.179L462.598 228.414L475.768 236.765Z" fill="black"/>
<path opacity="0.1" d="M455.278 232.277C455 232.218 454.631 232.314 454.578 232.592C454.571 232.733 454.608 232.873 454.685 232.993C455.297 233.961 456.187 234.723 457.239 235.178C457.418 235.279 457.616 235.343 457.821 235.365C457.928 235.378 458.036 235.358 458.131 235.308C458.226 235.259 458.304 235.182 458.355 235.087C458.385 235.006 458.397 234.92 458.39 234.835C458.384 234.749 458.359 234.665 458.318 234.59C458.154 234.301 457.928 234.053 457.655 233.863C456.939 233.302 456.207 232.431 455.278 232.277Z" fill="black"/>
<path d="M476.42 289.388C484.042 289.388 490.221 283.209 490.221 275.587C490.221 267.965 484.042 261.786 476.42 261.786C468.798 261.786 462.619 267.965 462.619 275.587C462.619 283.209 468.798 289.388 476.42 289.388Z" fill="#0981EF"/>
<path d="M100.625 275.619H107.095C110.638 275.619 114.035 277.026 116.54 279.531C119.045 282.036 120.453 285.434 120.453 288.976V308.826H87.2673V288.976C87.2673 285.434 88.6746 282.036 91.1796 279.531C93.6847 277.026 97.0822 275.619 100.625 275.619Z" fill="#3F3D56"/>
<path opacity="0.1" d="M100.625 275.619H107.095C110.638 275.619 114.035 277.026 116.54 279.531C119.045 282.036 120.453 285.434 120.453 288.976V308.826H87.2673V288.976C87.2673 285.434 88.6746 282.036 91.1796 279.531C93.6847 277.026 97.0822 275.619 100.625 275.619Z" fill="black"/>
<path d="M102.532 282.923C103.999 282.923 105.188 281.734 105.188 280.267C105.188 278.801 103.999 277.612 102.532 277.612C101.066 277.612 99.8768 278.801 99.8768 280.267C99.8768 281.734 101.066 282.923 102.532 282.923Z" fill="#3F3D56"/>
<path d="M102.532 279.605C103.999 279.605 105.188 278.416 105.188 276.949C105.188 275.483 103.999 274.294 102.532 274.294C101.066 274.294 99.8768 275.483 99.8768 276.949C99.8768 278.416 101.066 279.605 102.532 279.605Z" fill="#3F3D56"/>
<path d="M102.532 276.282C103.999 276.282 105.188 275.093 105.188 273.626C105.188 272.16 103.999 270.971 102.532 270.971C101.066 270.971 99.8768 272.16 99.8768 273.626C99.8768 275.093 101.066 276.282 102.532 276.282Z" fill="#3F3D56"/>
<path d="M102.532 272.964C103.999 272.964 105.188 271.775 105.188 270.308C105.188 268.841 103.999 267.653 102.532 267.653C101.066 267.653 99.8768 268.841 99.8768 270.308C99.8768 271.775 101.066 272.964 102.532 272.964Z" fill="#3F3D56"/>
<path d="M102.532 269.645C103.999 269.645 105.188 268.457 105.188 266.99C105.188 265.523 103.999 264.334 102.532 264.334C101.066 264.334 99.8768 265.523 99.8768 266.99C99.8768 268.457 101.066 269.645 102.532 269.645Z" fill="#3F3D56"/>
<path d="M102.532 266.328C103.999 266.328 105.188 265.139 105.188 263.672C105.188 262.205 103.999 261.017 102.532 261.017C101.066 261.017 99.8768 262.205 99.8768 263.672C99.8768 265.139 101.066 266.328 102.532 266.328Z" fill="#3F3D56"/>
<path d="M102.532 263.009C103.999 263.009 105.188 261.821 105.188 260.354C105.188 258.887 103.999 257.698 102.532 257.698C101.066 257.698 99.8768 258.887 99.8768 260.354C99.8768 261.821 101.066 263.009 102.532 263.009Z" fill="#3F3D56"/>
<path d="M106.518 264.335C107.985 264.335 109.174 263.146 109.174 261.679C109.174 260.213 107.985 259.024 106.518 259.024C105.052 259.024 103.863 260.213 103.863 261.679C103.863 263.146 105.052 264.335 106.518 264.335Z" fill="#3F3D56"/>
<path d="M109.174 263.009C110.64 263.009 111.829 261.821 111.829 260.354C111.829 258.887 110.64 257.698 109.174 257.698C107.707 257.698 106.518 258.887 106.518 260.354C106.518 261.821 107.707 263.009 109.174 263.009Z" fill="#3F3D56"/>
<path d="M111.829 261.679C113.296 261.679 114.485 260.49 114.485 259.024C114.485 257.557 113.296 256.368 111.829 256.368C110.363 256.368 109.174 257.557 109.174 259.024C109.174 260.49 110.363 261.679 111.829 261.679Z" fill="#3F3D56"/>
<path d="M102.532 259.692C103.999 259.692 105.188 258.503 105.188 257.036C105.188 255.57 103.999 254.381 102.532 254.381C101.066 254.381 99.8768 255.57 99.8768 257.036C99.8768 258.503 101.066 259.692 102.532 259.692Z" fill="#3F3D56"/>
<path d="M102.532 256.373C103.999 256.373 105.188 255.185 105.188 253.718C105.188 252.251 103.999 251.062 102.532 251.062C101.066 251.062 99.8768 252.251 99.8768 253.718C99.8768 255.185 101.066 256.373 102.532 256.373Z" fill="#3F3D56"/>
<path d="M102.532 253.05C103.999 253.05 105.188 251.861 105.188 250.395C105.188 248.928 103.999 247.739 102.532 247.739C101.066 247.739 99.8768 248.928 99.8768 250.395C99.8768 251.861 101.066 253.05 102.532 253.05Z" fill="#3F3D56"/>
<path d="M102.532 249.732C103.999 249.732 105.188 248.543 105.188 247.077C105.188 245.61 103.999 244.421 102.532 244.421C101.066 244.421 99.8768 245.61 99.8768 247.077C99.8768 248.543 101.066 249.732 102.532 249.732Z" fill="#3F3D56"/>
<path d="M113.539 238.517C112.882 238.613 112.219 238.683 111.557 238.725C112.175 238.185 112.748 237.595 113.272 236.962C112.902 235.847 112.361 234.796 111.669 233.847C111.011 234.217 110.283 234.446 109.532 234.52C108.874 234.617 108.212 234.686 107.549 234.734C108.42 234.024 109.232 232.955 110.087 232.063C108.112 230.271 105.565 229.239 102.899 229.149C100.234 229.058 97.6228 229.916 95.5306 231.57C93.4383 233.224 92.0005 235.566 91.4727 238.18C90.9449 240.795 91.3614 243.511 92.6481 245.847C93.9349 248.183 96.0084 249.987 98.5 250.938C100.992 251.889 103.74 251.926 106.256 251.041C108.772 250.156 110.892 248.408 112.241 246.107C113.589 243.806 114.077 241.102 113.619 238.474L113.539 238.517Z" fill="#0981EF"/>
<path d="M122.414 251.709C121.736 252.125 120.972 252.379 120.18 252.452C119.523 252.548 118.861 252.623 118.198 252.665C118.902 252.034 119.559 251.352 120.164 250.624C118.563 250.207 116.864 250.402 115.399 251.171C113.934 251.939 112.808 253.227 112.242 254.782C111.676 256.336 111.71 258.046 112.337 259.577C112.965 261.108 114.141 262.35 115.635 263.06C117.13 263.77 118.835 263.897 120.418 263.416C122.002 262.935 123.349 261.882 124.196 260.46C125.043 259.039 125.33 257.353 125.001 255.732C124.671 254.111 123.749 252.67 122.414 251.693V251.709Z" fill="#0981EF"/>
<path d="M98.5518 264.335C100.018 264.335 101.207 263.146 101.207 261.679C101.207 260.213 100.018 259.024 98.5518 259.024C97.0852 259.024 95.8963 260.213 95.8963 261.679C95.8963 263.146 97.0852 264.335 98.5518 264.335Z" fill="#3F3D56"/>
<path d="M95.8963 263.009C97.3629 263.009 98.5518 261.821 98.5518 260.354C98.5518 258.887 97.3629 257.698 95.8963 257.698C94.4297 257.698 93.2408 258.887 93.2408 260.354C93.2408 261.821 94.4297 263.009 95.8963 263.009Z" fill="#3F3D56"/>
<path d="M93.2408 261.679C94.7074 261.679 95.8963 260.49 95.8963 259.024C95.8963 257.557 94.7074 256.368 93.2408 256.368C91.7742 256.368 90.5853 257.557 90.5853 259.024C90.5853 260.49 91.7742 261.679 93.2408 261.679Z" fill="#3F3D56"/>
<path d="M82.6563 251.709C83.3335 252.126 84.0979 252.38 84.8897 252.452C85.5469 252.548 86.2094 252.623 86.872 252.665C86.1665 252.035 85.5092 251.353 84.9057 250.624C86.5068 250.207 88.2059 250.402 89.671 251.171C91.1361 251.939 92.2618 253.227 92.828 254.782C93.3942 256.336 93.3602 258.046 92.7327 259.577C92.1052 261.108 90.9292 262.35 89.4347 263.06C87.9403 263.77 86.2347 263.897 84.6515 263.416C83.0683 262.935 81.7214 261.882 80.8739 260.46C80.0265 259.039 79.7396 257.353 80.0692 255.732C80.3988 254.111 81.3213 252.67 82.6563 251.693V251.709Z" fill="#0981EF"/>
<path d="M100.625 277.612H107.095C110.638 277.612 114.035 279.019 116.54 281.524C119.045 284.029 120.453 287.427 120.453 290.969V308.532C120.453 309.133 120.214 309.709 119.789 310.134C119.364 310.559 118.788 310.797 118.187 310.797H89.5328C88.9319 310.797 88.3557 310.559 87.9308 310.134C87.506 309.709 87.2673 309.133 87.2673 308.532V290.969C87.2673 287.427 88.6746 284.029 91.1796 281.524C93.6847 279.019 97.0822 277.612 100.625 277.612Z" fill="#3F3D56"/>
<g opacity="0.1">
<path opacity="0.1" d="M113.742 239.244C113.473 239.531 113.188 239.802 112.887 240.056C113.192 240.056 113.491 240.008 113.795 239.976C113.806 239.73 113.769 239.484 113.742 239.244Z" fill="black"/>
<path opacity="0.1" d="M108.901 236.07C109.569 236.027 110.226 235.958 110.889 235.862C111.483 235.786 112.064 235.628 112.615 235.392C112.346 234.857 112.035 234.344 111.685 233.858C111.353 234.06 110.993 234.213 110.616 234.312C110.092 234.943 109.519 235.531 108.901 236.07Z" fill="black"/>
<path opacity="0.1" d="M92.5783 241.771C92.5743 239.745 93.1167 237.756 94.1484 236.013C95.18 234.27 96.6627 232.837 98.4403 231.865C100.218 230.894 102.225 230.42 104.249 230.493C106.273 230.567 108.24 231.185 109.943 232.282L110.114 232.1C109.003 231.112 107.707 230.353 106.301 229.867C104.895 229.381 103.407 229.179 101.922 229.271C100.438 229.363 98.9862 229.748 97.6511 230.403C96.316 231.059 95.1238 231.972 94.1432 233.09C93.1626 234.209 92.413 235.51 91.9376 236.92C91.4623 238.329 91.2705 239.819 91.3733 241.302C91.4762 242.786 91.8717 244.235 92.537 245.565C93.2023 246.896 94.1243 248.081 95.2498 249.054C93.5218 247.021 92.5747 244.439 92.5783 241.771Z" fill="black"/>
</g>
<g opacity="0.1">
<path opacity="0.1" d="M118.198 253.99C118.861 253.948 119.523 253.878 120.18 253.782C120.972 253.707 121.736 253.451 122.414 253.034C123.164 253.586 123.789 254.291 124.25 255.101C124.71 255.911 124.995 256.809 125.085 257.736C125.111 257.503 125.124 257.27 125.123 257.036C125.128 255.998 124.888 254.974 124.424 254.046C123.96 253.117 123.284 252.311 122.451 251.693C121.774 252.109 121.009 252.363 120.218 252.436L119.683 252.505C119.227 253.038 118.731 253.534 118.198 253.99Z" fill="black"/>
<path opacity="0.1" d="M118.465 251.725C118.687 251.728 118.908 251.744 119.128 251.773C119.475 251.404 119.817 251.009 120.164 250.624C119.182 250.362 118.152 250.329 117.156 250.528C116.159 250.728 115.221 251.154 114.415 251.774C113.609 252.394 112.957 253.191 112.508 254.103C112.06 255.016 111.827 256.019 111.829 257.036C111.829 257.26 111.829 257.479 111.861 257.698C112.025 256.061 112.792 254.543 114.012 253.44C115.233 252.336 116.82 251.725 118.465 251.725Z" fill="black"/>
</g>
<g opacity="0.1">
<path opacity="0.1" d="M86.8719 253.99C86.2094 253.948 85.5469 253.878 84.8897 253.782C84.0975 253.708 83.3331 253.452 82.6563 253.034C81.9061 253.586 81.2806 254.291 80.8203 255.101C80.3601 255.911 80.0754 256.809 79.9848 257.736C79.9589 257.503 79.9464 257.27 79.9474 257.036C79.9424 255.998 80.1816 254.974 80.6456 254.046C81.1097 253.117 81.7857 252.311 82.6189 251.693C83.2961 252.109 84.0605 252.364 84.8523 252.436L85.3866 252.505C85.8396 253.04 86.3365 253.537 86.8719 253.99Z" fill="black"/>
<path opacity="0.1" d="M86.6048 251.725C86.3814 251.728 86.1584 251.744 85.9369 251.773C85.595 251.404 85.253 251.009 84.9057 250.624C85.888 250.362 86.9175 250.329 87.9144 250.528C88.9114 250.728 89.8491 251.154 90.655 251.774C91.4609 252.394 92.1133 253.191 92.5617 254.103C93.0101 255.016 93.2424 256.019 93.2408 257.036C93.2408 257.26 93.2408 257.479 93.2087 257.698C93.0445 256.061 92.2778 254.543 91.0575 253.44C89.8371 252.336 88.2503 251.725 86.6048 251.725Z" fill="black"/>
</g>
</g>
<defs>
<clipPath id="clip0">
<rect width="700" height="340.35" fill="white"/>
</clipPath>
</defs>
</svg>
